<svg width="1021.0005371093749px" height="122px" xmlns="http://www.w3.org/2000/svg" viewBox="-260.50026855468747 14 1021.0005371093749 122" style="background: rgba(0, 0, 0, 0);" preserveAspectRatio="xMidYMid"><defs><filter id="editing-hole" x="-100%" y="-100%" width="300%" height="300%"><feFlood flood-color="#000000" result="black"></feFlood><feMorphology operator="dilate" radius="2" in="SourceGraphic" result="erode"></feMorphology><feGaussianBlur in="erode" stdDeviation="4" result="blur"></feGaussianBlur><feOffset in="blur" dx="2" dy="2" result="offset"></feOffset><feComposite operator="atop" in="offset" in2="black" result="merge"></feComposite><feComposite operator="in" in="merge" in2="SourceGraphic" result="inner-shadow"></feComposite></filter></defs><g filter="url(#editing-hole)"><g transform="translate(-118.01238524913788, 100.29472923278809)"><path d="M12.25-11.25L12.25-11.25L12.44-8.25L12.44-8.25Q12.56-5.81 11.19-5.06L11.19-5.06L11.19-5.06Q10.81-2.56 10.81-0.63L10.81-0.63L10.81-0.63Q10.38 0.25 9.38 0.44L9.38 0.44L9.38 0.44Q7.50 0.69 6.94-0.56L6.94-0.56L6.94-0.56Q6.13-2.13 5.63-2.25L5.63-2.25L5.63-2.25Q5.50-2.31 5.22-2.34L5.22-2.34L5.22-2.34Q4.94-2.38 4.56-2.53L4.56-2.53L4.56-2.53Q4.19-2.69 4.28-3.50L4.28-3.50L4.28-3.50Q4.38-4.31 4.25-4.81L4.25-4.81L4.25-4.81Q4.13-5.31 3.94-5.88L3.94-5.88L3.94-5.88Q3.44-7.50 3.44-9L3.44-9L3.44-9Q3.44-10.06 3.47-10.94L3.47-10.94L3.47-10.94Q3.50-11.81 3.50-12.69L3.50-12.69L3.50-12.69Q3.38-15.50 2.78-17.50L2.78-17.50L2.78-17.50Q2.19-19.50 2-20.13L2-20.13L2-20.13Q1.63-21.50 1.63-22.75L1.63-22.75L1.63-22.75Q1.63-23.50 1.81-23.84L1.81-23.84L1.81-23.84Q2-24.19 2.19-24.56L2.19-24.56L2.19-24.56Q2.69-25.50 2.59-26.75L2.59-26.75L2.59-26.75Q2.50-28 2.41-29.28L2.41-29.28L2.41-29.28Q2.31-30.56 2.22-32.16L2.22-32.16L2.22-32.16Q2.13-33.75 2.03-35.56L2.03-35.56L2.03-35.56Q1.94-37.38 1.94-39.06L1.94-39.06L1.94-39.06Q1.94-44.56 3.31-45.25L3.31-45.25L3.31-45.25Q3.56-45.38 3.91-45.53L3.91-45.53L3.91-45.53Q4.25-45.69 4.75-46L4.75-46L4.75-46Q5.25-46.31 5.66-46.63L5.66-46.63L5.66-46.63Q6.06-46.94 6.50-47.13L6.50-47.13L6.50-47.13Q7.31-47.50 8.47-47.03L8.47-47.03L8.47-47.03Q9.63-46.56 10.13-46.41L10.13-46.41L10.13-46.41Q10.63-46.25 11.13-46.16L11.13-46.16L11.13-46.16Q11.63-46.06 12.28-46.09L12.28-46.09L12.28-46.09Q12.94-46.13 14.16-46.16L14.16-46.16L14.16-46.16Q15.38-46.19 16.78-46.13L16.78-46.13L16.78-46.13Q18.19-46.06 19.50-45.75L19.50-45.75L19.50-45.75Q23.75-44.88 26.06-41.06L26.06-41.06L26.06-41.06Q27.06-39.38 27.13-38.06L27.13-38.06L27.13-38.06Q27.19-36.75 27.28-35.53L27.28-35.53L27.28-35.53Q27.38-34.31 27.75-32.78L27.75-32.78L27.75-32.78Q28.13-31.25 28-29.88L28-29.88L28-29.88Q27.88-28.50 27.72-27.97L27.72-27.97L27.72-27.97Q27.56-27.44 27.38-27L27.38-27L27.38-27Q27.06-26.06 27.13-25.06L27.13-25.06L27.13-25.06Q27.25-23.44 26.88-22.53L26.88-22.53L26.88-22.53Q26.50-21.63 26.13-20.69L26.13-20.69L26.13-20.69Q25.06-18.38 23.81-18.06L23.81-18.06L23.81-18.06Q23.13-17.94 22.69-17.81L22.69-17.81L22.69-17.81Q22.25-17.69 22.19-17.25L22.19-17.25L22.19-17.25Q22.06-16.94 22.56-16.53L22.56-16.53L22.56-16.53Q23.06-16.13 23.59-15.31L23.59-15.31L23.59-15.31Q24.13-14.50 24.50-14.25L24.50-14.25L24.50-14.25Q24.88-14 25.19-13.94L25.19-13.94L25.19-13.94Q26.13-13.75 26.38-13.50L26.38-13.50L26.38-13.50Q26.94-12.81 27.22-12.38L27.22-12.38L27.22-12.38Q27.50-11.94 27.38-11.06L27.38-11.06L27.38-11.06Q27.25-10.19 27.38-9.25L27.38-9.25L27.38-9.25Q27.50-8.31 27.63-7.28L27.63-7.28L27.63-7.28Q27.75-6.25 27.66-5.56L27.66-5.56L27.66-5.56Q27.56-4.88 27.56-4.56L27.56-4.56L27.81-2.94L27.81-2.94Q27.81-1.44 26.94-0.50L26.94-0.50L26.94-0.50Q26.06 0.44 25.56 0.56L25.56 0.56L25.56 0.56Q25.06 0.69 24.63 0.50L24.63 0.50L24.63 0.50Q24.19 0.31 23.88 0.03L23.88 0.03L23.88 0.03Q23.56-0.25 23.38-0.34L23.38-0.34L23.38-0.34Q23.19-0.44 22.91-0.47L22.91-0.47L22.91-0.47Q22.63-0.50 22.31-0.63L22.31-0.63L22.31-0.63Q21.19-0.94 20.38-5L20.38-5L20.38-5Q19.94-7 18.88-7.56L18.88-7.56L18.88-7.56Q17.25-8.38 17.13-9.81L17.13-9.81L17.13-9.81Q17.06-10.50 17-11.69L17-11.69L17-11.69Q16.75-14.06 15.38-14.63L15.38-14.63L15.38-14.63Q14.69-14.88 14.13-14.88L14.13-14.88L14.13-14.88Q13.56-14.88 13-14.25L13-14.25L13-14.25Q12.25-13.31 12.25-11.25ZM15.38-23.13L15.38-23.13L15.38-23.13Q16.19-23.88 16.97-24.47L16.97-24.47L16.97-24.47Q17.75-25.06 18.28-26.03L18.28-26.03L18.28-26.03Q18.81-27 19.13-28L19.13-28L19.13-28Q19.63-29.88 19.47-31.47L19.47-31.47L19.47-31.47Q19.31-33.06 19.09-33.59L19.09-33.59L19.09-33.59Q18.88-34.13 17.84-34.13L17.84-34.13L17.84-34.13Q16.81-34.13 15.78-34.63L15.78-34.63L15.78-34.63Q14.75-35.13 14.63-35.81L14.63-35.81L14.63-35.81Q14.50-37.31 13.69-36.88L13.69-36.88L13.69-36.88Q13.25-36.63 13.06-36.41L13.06-36.41L13.06-36.41Q12.88-36.19 12.75-35.13L12.75-35.13L12.75-35.13Q12.56-32.94 12.78-31.69L12.78-31.69L12.78-31.69Q13-30.44 13.06-30.03L13.06-30.03L13.06-30.03Q13.13-29.63 13.16-29.16L13.16-29.16L13.16-29.16Q13.19-28.69 13.22-28.09L13.22-28.09L13.22-28.09Q13.25-27.50 13.34-26.22L13.34-26.22L13.34-26.22Q13.44-24.94 13.38-24.06L13.38-24.06L13.38-24.06Q13.31-23.19 13.56-22.25L13.56-22.25L13.56-22.25Q14.56-22.38 15.38-23.13ZM46.63-34.56L46.63-34.56L46.63-34.56Q44.50-34 45.81-27.31L45.81-27.31L45.81-27.31Q46.25-25.50 46.28-24.28L46.28-24.28L46.28-24.28Q46.31-23.06 45.94-21.63L45.94-21.63L45.94-21.63Q45.56-20.19 45.56-19.31L45.56-19.31L45.56-19.31Q45.56-18.44 45.31-17.25L45.31-17.25L45.31-17.25Q45.38-15.94 45.28-14.59L45.28-14.59L45.28-14.59Q45.19-13.25 45.13-12L45.13-12L45.13-12Q44.94-8.94 45.06-8.38L45.06-8.38L45.06-8.38Q45.19-7.81 45.47-7.66L45.47-7.66L45.47-7.66Q45.75-7.50 46.13-7.38L46.13-7.38L46.13-7.38Q47-7.06 47.19-6.56L47.19-6.56L47.19-6.56Q47.38-6.06 47.34-5.16L47.34-5.16L47.34-5.16Q47.31-4.25 47.13-3.25L47.13-3.25L47.13-3.25Q46.56-0.88 45.56-0.19L45.56-0.19L45.56-0.19Q45 0.19 44.41 0.06L44.41 0.06L44.41 0.06Q43.81-0.06 43.13-0.19L43.13-0.19L43.13-0.19Q41-0.56 39.50 0.19L39.50 0.19L39.50 0.19Q35.81 2.19 33.81 0.19L33.81 0.19L33.81 0.19Q33-0.63 32.81-2.31L32.81-2.31L32.81-2.31Q32.56-5.38 33.16-6.25L33.16-6.25L33.16-6.25Q33.75-7.13 34.16-7.34L34.16-7.34L34.16-7.34Q34.56-7.56 34.88-7.75L34.88-7.75L34.88-7.75Q35.56-8.06 35.56-8.81L35.56-8.81L35.56-8.81Q35.56-9.38 35.72-10.03L35.72-10.03L35.72-10.03Q35.88-10.69 36-11.44L36-11.44L36-11.44Q36.31-13.25 35.69-14.44L35.69-14.44L35.69-14.44Q35-15.81 35.09-16.69L35.09-16.69L35.09-16.69Q35.19-17.56 35.25-18.25L35.25-18.25L35.50-19.75L35.50-19.75Q35.63-21.56 35.44-22.84L35.44-22.84L35.44-22.84Q35.25-24.13 35.16-25.53L35.16-25.53L35.16-25.53Q35.06-26.94 35.09-28.19L35.09-28.19L35.09-28.19Q35.13-29.44 35.13-30.56L35.13-30.56L35.13-30.56Q35.13-33.19 34.59-33.69L34.59-33.69L34.59-33.69Q34.06-34.19 33.63-34.22L33.63-34.22L33.63-34.22Q33.19-34.25 32.75-34.25L32.75-34.25L32.75-34.25Q31.56-34.13 31.25-34.63L31.25-34.63L31.25-34.63Q30.56-35.31 30.56-36.38L30.56-36.38L30.56-36.38Q30.56-37.44 30.97-38L30.97-38L30.97-38Q31.38-38.56 31.50-39.28L31.50-39.28L31.50-39.28Q31.63-40 31.63-40.81L31.63-40.81L31.63-40.81Q31.75-42.69 31.50-43.28L31.50-43.28L31.50-43.28Q31.25-43.88 31.16-44.34L31.16-44.34L31.16-44.34Q31.06-44.81 31.06-45.25L31.06-45.25L31.06-45.25Q31.06-47.06 33.63-47.13L33.63-47.13L33.63-47.13Q35.19-47.19 36.81-47.09L36.81-47.09L36.81-47.09Q38.44-47 39.38-47.19L39.38-47.19L39.38-47.19Q42.63-47.81 44.59-47.69L44.59-47.69L44.59-47.69Q46.56-47.56 47.13-47.38L47.13-47.38L47.13-47.38Q48.69-46.75 48.81-43.94L48.81-43.94L48.81-43.94Q48.88-42.63 48.88-41.19L48.88-41.19L48.88-41.19Q48.88-39.75 49-38.25L49-38.25L49-38.25Q49.25-35.13 46.63-34.56ZM76.97-37.59L76.97-37.59L76.97-37.59Q77.13-36.94 77.09-36.09L77.09-36.09L77.09-36.09Q77.06-35.25 76.63-33.72L76.63-33.72L76.63-33.72Q76.19-32.19 76.34-30.97L76.34-30.97L76.34-30.97Q76.50-29.75 76.69-29.34L76.69-29.34L76.69-29.34Q76.88-28.94 76.97-28.38L76.97-28.38L76.97-28.38Q77.06-27.81 76.94-27.19L76.94-27.19L76.94-27.19Q76.63-25.75 75.13-24.94L75.13-24.94L75.13-24.94Q73.69-24.31 72.66-23.59L72.66-23.59L72.66-23.59Q71.63-22.88 70.50-22.50L70.50-22.50L70.50-22.50Q70.25-21.75 70.03-21.13L70.03-21.13L70.03-21.13Q69.81-20.50 69.31-20.16L69.31-20.16L69.31-20.16Q68.81-19.81 68.19-20.03L68.19-20.03L68.19-20.03Q67.56-20.25 67.69-21.34L67.69-21.34L67.69-21.34Q67.81-22.44 67.34-22.84L67.34-22.84L67.34-22.84Q66.88-23.25 66.59-23.50L66.59-23.50L66.59-23.50Q66.31-23.75 66.06-24L66.06-24L66.06-24Q65.81-24.25 65.69-24.63L65.69-24.63L65.69-24.63Q65.38-25.75 65.84-26.63L65.84-26.63L65.84-26.63Q66.31-27.50 66.34-27.94L66.34-27.94L66.34-27.94Q66.38-28.38 66.31-28.88L66.31-28.88L66.31-28.88Q66.13-30.13 66.28-31L66.28-31L66.28-31Q66.44-31.88 65.84-32.50L65.84-32.50L65.84-32.50Q65.25-33.13 64.53-33.06L64.53-33.06L64.53-33.06Q63.81-33 63.34-31.13L63.34-31.13L63.34-31.13Q62.88-29.25 62.63-26.47L62.63-26.47L62.63-26.47Q62.38-23.69 62.34-20.44L62.34-20.44L62.34-20.44Q62.31-17.19 62.63-14.38L62.63-14.38L62.63-14.38Q63.25-7.94 64.88-7.81L64.88-7.81L64.88-7.81Q66.50-7.69 67.38-8.28L67.38-8.28L67.38-8.28Q68.25-8.88 68.75-9.63L68.75-9.63L68.75-9.63Q69.25-10.38 69.53-11.03L69.53-11.03L69.53-11.03Q69.81-11.69 70.19-11.81L70.19-11.81L70.19-11.81Q72.81-12.69 73.88-10.75L73.88-10.75L73.88-10.75Q74.31-9.94 74.31-8.44L74.31-8.44L74.31-8.44Q74.31-6.94 74.09-6.22L74.09-6.22L74.09-6.22Q73.88-5.50 73.59-5.03L73.59-5.03L73.59-5.03Q73.31-4.56 73.06-4.19L73.06-4.19L73.06-4.19Q72.81-3.81 72.69-3.22L72.69-3.22L72.69-3.22Q72.56-2.63 72.13-2.13L72.13-2.13L72.13-2.13Q71.69-1.63 71.06-1.25L71.06-1.25L71.06-1.25Q69.75-0.56 68.88-0.56L68.88-0.56L68.88-0.56Q65.44-0.56 63.75 0.69L63.75 0.69L63.75 0.69Q62.69 1.56 61.63 1.50L61.63 1.50L61.63 1.50Q60.06 1.44 59.50 0.88L59.50 0.88L59.50 0.88Q58.94 0.31 58-0.25L58-0.25L58-0.25Q57.06-0.81 56.91-1.66L56.91-1.66L56.91-1.66Q56.75-2.50 56.31-3L56.31-3L56.31-3Q55.88-3.50 55.38-4.25L55.38-4.25L55.38-4.25Q54.06-5.94 54.06-8.25L54.06-8.25L54.06-8.25Q54.06-9.69 54.13-10.63L54.13-10.63L54.13-10.63Q54.19-11.56 54.13-12.25L54.13-12.25L54.13-12.25Q54.13-13.56 53-14.97L53-14.97L53-14.97Q51.88-16.38 51.69-17.41L51.69-17.41L51.69-17.41Q51.50-18.44 51.34-19.34L51.34-19.34L51.34-19.34Q51.19-20.25 51.31-21.13L51.31-21.13L51.31-21.13Q51.44-22 51.56-22.94L51.56-22.94L51.56-22.94Q51.69-23.88 52.03-24.56L52.03-24.56L52.03-24.56Q52.38-25.25 52.28-25.94L52.28-25.94L52.28-25.94Q52.19-26.63 52.41-27.06L52.41-27.06L52.41-27.06Q52.63-27.50 52.81-28L52.81-28L52.81-28Q53.31-29.38 52.69-30.72L52.69-30.72L52.69-30.72Q52.06-32.06 52.03-32.88L52.03-32.88L52.03-32.88Q52-33.69 52.19-34.34L52.19-34.34L52.19-34.34Q52.38-35 52.59-35.59L52.59-35.59L52.59-35.59Q52.81-36.19 52.81-37.13L52.81-37.13L52.81-37.13Q52.81-38.06 53.16-39.31L53.16-39.31L53.16-39.31Q53.50-40.56 54.91-40.91L54.91-40.91L54.91-40.91Q56.31-41.25 56.50-41.88L56.50-41.88L56.50-41.88Q56.69-42.50 56.94-43.19L56.94-43.19L56.94-43.19Q57.13-43.88 58.13-44.72L58.13-44.72L58.13-44.72Q59.13-45.56 61.03-45.84L61.03-45.84L61.03-45.84Q62.94-46.13 63.78-45.88L63.78-45.88L63.78-45.88Q64.63-45.63 65.31-44.84L65.31-44.84L65.31-44.84Q66-44.06 66.63-43.97L66.63-43.97L66.63-43.97Q67.25-43.88 67.94-44L67.94-44L67.94-44Q71.19-44.44 74.44-42.63L74.44-42.63L74.44-42.63Q75.56-42 75.94-40.69L75.94-40.69L75.94-40.69Q76.31-39.38 76.56-38.81L76.56-38.81L76.56-38.81Q76.81-38.25 76.97-37.59ZM101.38-26.69L101.38-26.69L101.38-26.69Q100.13-24.13 99.66-22.94L99.66-22.94L99.66-22.94Q99.19-21.75 99.19-21.16L99.19-21.16L99.19-21.16Q99.19-20.56 99.59-19.53L99.59-19.53L99.59-19.53Q100-18.50 100.63-17.22L100.63-17.22L100.63-17.22Q101.25-15.94 102.03-14.38L102.03-14.38L102.03-14.38Q102.81-12.81 103.38-11.47L103.38-11.47L103.38-11.47Q103.94-10.13 104.16-9.41L104.16-9.41L104.16-9.41Q104.38-8.69 104.50-8L104.50-8L104.50-8Q104.63-6.81 104.41-5.31L104.41-5.31L104.41-5.31Q104.19-3.81 104.28-2.91L104.28-2.91L104.28-2.91Q104.38-2 104.34-1.25L104.34-1.25L104.34-1.25Q104.31-0.50 104.06-0.03L104.06-0.03L104.06-0.03Q103.81 0.44 102.59 0.53L102.59 0.53L102.59 0.53Q101.38 0.63 100.34-0.31L100.34-0.31L100.34-0.31Q99.31-1.25 98.59-2.53L98.59-2.53L98.59-2.53Q97.88-3.81 97.41-5.06L97.41-5.06L97.41-5.06Q96.94-6.31 96.19-7.13L96.19-7.13L96.19-7.13Q95.44-7.94 94.91-9.50L94.91-9.50L94.91-9.50Q94.38-11.06 94-12.50L94-12.50L94-12.50Q93.63-13.94 93.19-15L93.19-15L93.19-15Q92.75-16.06 91.97-16.19L91.97-16.19L91.97-16.19Q91.19-16.31 90.97-15.81L90.97-15.81L90.97-15.81Q90.75-15.31 90.78-14.47L90.78-14.47L90.78-14.47Q90.81-13.63 90.94-12.59L90.94-12.59L90.94-12.59Q91.06-11.56 91.09-10.34L91.09-10.34L91.09-10.34Q91.13-9.13 90.97-8.06L90.97-8.06L90.97-8.06Q90.81-7 89.97-6.03L89.97-6.03L89.97-6.03Q89.13-5.06 88.84-4.06L88.84-4.06L88.84-4.06Q88.56-3.06 88.38-2.13L88.38-2.13L88.38-2.13Q88.19-1.19 87.88-0.50L87.88-0.50L87.88-0.50Q87.56 0.19 86.81 0.19L86.81 0.19L86.81 0.19Q85.31 0.25 84.06-1.50L84.06-1.50L84.06-1.50Q82.81-3.25 82.63-6.06L82.63-6.06L82.63-6.06Q82.44-7.69 81.69-8.19L81.69-8.19L81.69-8.19Q81-8.63 81.25-11.63L81.25-11.63L81.25-11.63Q81.31-12.44 81.50-13.06L81.50-13.06L81.50-13.06Q81.88-15 81.47-18.59L81.47-18.59L81.47-18.59Q81.06-22.19 80.94-22.84L80.94-22.84L80.94-22.84Q80.81-23.50 80.66-24.41L80.66-24.41L80.66-24.41Q80.50-25.31 80.41-26.34L80.41-26.34L80.41-26.34Q80.31-27.38 80.31-28.47L80.31-28.47L80.31-28.47Q80.31-29.56 80.59-30.78L80.59-30.78L80.59-30.78Q80.88-32 80.91-32.81L80.91-32.81L80.91-32.81Q80.94-33.63 80.88-34.25L80.88-34.25L80.88-34.25Q80.56-36.25 80.66-37.47L80.66-37.47L80.66-37.47Q80.75-38.69 80.56-40.06L80.56-40.06L80.56-40.06Q80.38-41.44 80.31-42.75L80.31-42.75L80.31-42.75Q80.25-44.06 80.53-45.16L80.53-45.16L80.53-45.16Q80.81-46.25 81.66-46.75L81.66-46.75L81.66-46.75Q82.50-47.25 83.13-47.16L83.13-47.16L83.13-47.16Q83.75-47.06 84.44-46.88L84.44-46.88L84.44-46.88Q86.50-46.31 87.31-46.44L87.31-46.44L87.31-46.44Q92.06-47.63 91.13-40.38L91.13-40.38L91.13-40.38Q90.94-39.19 90.75-38.25L90.75-38.25L90.75-38.25Q90.31-36 90.50-34.88L90.50-34.88L90.50-34.88Q90.63-34.13 90.66-33.25L90.66-33.25L90.66-33.25Q90.69-32.38 90.75-31.63L90.75-31.63L90.75-31.63Q90.88-29.88 91.56-29.88L91.56-29.88L91.56-29.88Q92.63-29.88 94.25-33.50L94.25-33.50L94.25-33.50Q94.63-34.31 94.78-34.81L94.78-34.81L94.78-34.81Q94.94-35.31 95.22-36L95.22-36L95.22-36Q95.50-36.69 95.88-37.38L95.88-37.38L95.88-37.38Q96.88-39.06 98-39.50L98-39.50L98-39.50Q97.19-41.25 97.72-42.53L97.72-42.53L97.72-42.53Q98.25-43.81 98.56-44.44L98.56-44.44L98.56-44.44Q98.88-45.06 99.25-45.44L99.25-45.44L99.25-45.44Q99.94-46.13 101.28-45.75L101.28-45.75L101.28-45.75Q102.63-45.38 103.63-45.69L103.63-45.69L103.63-45.69Q104.63-46 105.59-46.34L105.59-46.34L105.59-46.34Q106.56-46.69 107.50-46.84L107.50-46.84L107.50-46.84Q108.44-47 109.09-46.44L109.09-46.44L109.09-46.44Q109.75-45.88 109.91-45.16L109.91-45.16L109.91-45.16Q110.06-44.44 109.88-43.63L109.88-43.63L109.88-43.63Q109.50-41.94 108-40.31L108-40.31L108-40.31Q107.13-36.88 105.13-34.88L105.13-34.88L105.13-34.88Q104.88-31.94 103.25-29.94L103.25-29.94L103.25-29.94Q102.63-29.25 101.38-26.69ZM147.94 0.38L147.94 0.38L147.94 0.38Q147.56 1.06 146.94 1.41L146.94 1.41L146.94 1.41Q146.31 1.75 145.69 1.28L145.69 1.28L145.69 1.28Q145.06 0.81 144.78 0.88L144.78 0.88L144.78 0.88Q144.50 0.94 144.25 1L144.25 1L144.25 1Q143.69 1.06 143.13 0.19L143.13 0.19L143.13 0.19Q142.56-0.69 142.50-1.22L142.50-1.22L142.50-1.22Q142.44-1.75 142.50-2.25L142.50-2.25L142.50-2.25Q142.75-3.38 142.16-4.25L142.16-4.25L142.16-4.25Q141.56-5.13 141.34-5.56L141.34-5.56L141.34-5.56Q141.13-6 141.13-6.84L141.13-6.84L141.13-6.84Q141.13-7.69 141.03-7.91L141.03-7.91L141.03-7.91Q140.94-8.13 140.88-8.25L140.88-8.25L140.88-8.25Q140.56-8.81 140.66-10L140.66-10L140.66-10Q140.75-11.19 140.31-11.66L140.31-11.66L140.31-11.66Q139.88-12.13 139.16-12.38L139.16-12.38L139.16-12.38Q138.44-12.63 138.03-12.22L138.03-12.22L138.03-12.22Q137.63-11.81 137.28-11.25L137.28-11.25L137.28-11.25Q136.94-10.69 136.44-10.28L136.44-10.28L136.44-10.28Q135.94-9.88 135.16-10.06L135.16-10.06L135.16-10.06Q134.38-10.25 133.44-9.69L133.44-9.69L133.44-9.69Q132.50-9.13 132.31-8.34L132.31-8.34L132.31-8.34Q132.13-7.56 131.88-6.75L131.88-6.75L131.88-6.75Q131.63-5.94 131.72-5.25L131.72-5.25L131.72-5.25Q131.81-4.56 131.72-3.91L131.72-3.91L131.72-3.91Q131.63-3.25 131.38-2.63L131.38-2.63L131.38-2.63Q130.88-1.06 130.19-0.94L130.19-0.94L130.19-0.94Q129.63-0.88 129-0.94L129-0.94L129-0.94Q128.31 0.31 127.38 0.56L127.38 0.56L127.38 0.56Q124.81 1.13 124.31-0.25L124.31-0.25L124.31-0.25Q124-1.06 123.94-2.38L123.94-2.38L123.94-2.38Q123.81-5 123.38-5.94L123.38-5.94L123.38-5.94Q122.94-6.88 123.16-8.19L123.16-8.19L123.16-8.19Q123.38-9.50 123.31-10.81L123.31-10.81L123.31-10.81Q123.25-12.13 123.31-12.81L123.31-12.81L123.31-12.81Q123.38-13.50 123.47-14.06L123.47-14.06L123.47-14.06Q123.56-14.63 123.69-15.16L123.69-15.16L123.69-15.16Q123.81-15.69 123.84-16.41L123.84-16.41L123.84-16.41Q123.88-17.13 124.06-18.06L124.06-18.06L124.06-18.06Q124.25-19 124.44-20L124.44-20L124.44-20Q124.94-22.50 124.81-23.75L124.81-23.75L124.81-23.75Q124.69-25 125.03-25.88L125.03-25.88L125.03-25.88Q125.38-26.75 125.81-27.44L125.81-27.44L125.81-27.44Q126.94-29.25 126.88-30.41L126.88-30.41L126.88-30.41Q126.81-31.56 126.78-32.22L126.78-32.22L126.78-32.22Q126.75-32.88 126.81-33.56L126.81-33.56L126.81-33.56Q127.13-36.94 130-44.13L130-44.13L130-44.13Q130.19-44.81 131.19-45.19L131.19-45.19L131.19-45.19Q132.19-45.56 133.22-45.28L133.22-45.28L133.22-45.28Q134.25-45 134.91-45.03L134.91-45.03L134.91-45.03Q135.56-45.06 136.03-45.53L136.03-45.53L136.03-45.53Q136.50-46 137.03-46.44L137.03-46.44L137.03-46.44Q137.56-46.88 138.31-47.16L138.31-47.16L138.31-47.16Q139.06-47.44 140-47.44L140-47.44L140-47.44Q140.94-47.44 142-46.88L142-46.88L142-46.88Q143.75-45.94 144.31-45.13L144.31-45.13L144.31-45.13Q144.88-44.31 145.06-43.81L145.06-43.81L145.06-43.81Q145.25-43.31 145.69-42.44L145.69-42.44L145.69-42.44Q146.13-41.56 146.09-40.88L146.09-40.88L146.09-40.88Q146.06-40.19 146.31-39.25L146.31-39.25L146.31-39.25Q146.56-38.31 146.31-37.06L146.31-37.06L146.31-37.06Q146.06-35.81 146.31-34.59L146.31-34.59L146.31-34.59Q146.56-33.38 146.56-32.94L146.56-32.94L146.56-32.94Q146.56-32.50 146.63-32.13L146.63-32.13L146.63-32.13Q146.69-31.06 147.06-30.25L147.06-30.25L147.06-30.25Q147.44-29.38 147.28-28.09L147.28-28.09L147.28-28.09Q147.13-26.81 147.22-25.97L147.22-25.97L147.22-25.97Q147.31-25.13 147.88-24.25L147.88-24.25L147.88-24.25Q148.94-22.56 148.63-20.50L148.63-20.50L148.63-20.50Q148.56-19.94 148.66-19.28L148.66-19.28L148.66-19.28Q148.75-18.63 148.75-18.09L148.75-18.09L148.75-18.09Q148.75-17.56 148.63-16.75L148.63-16.75L148.63-16.75Q148.44-15.56 148.69-13.88L148.69-13.88L148.69-13.88Q149.06-10.75 149.06-9.69L149.06-9.69L149.06-9.69Q149.06-8.63 149.13-7.91L149.13-7.91L149.13-7.91Q149.19-7.19 149.25-6.38L149.25-6.38L149.25-6.38Q149.44-4.25 149.28-2.09L149.28-2.09L149.28-2.09Q149.13 0.06 147.94 0.38ZM138.38-24.81L138.38-24.81L138.38-24.81Q138.50-26 138.28-27.75L138.28-27.75L138.28-27.75Q138.06-29.50 138.06-30.34L138.06-30.34L138.06-30.34Q138.06-31.19 137.94-31.81L137.94-31.81L137.94-31.81Q137.75-32.81 136.88-32.06L136.88-32.06L136.88-32.06Q135.88-33.06 135.25-32.13L135.25-32.13L135.25-32.13Q134.81-31.44 134.81-29.88L134.81-29.88L134.81-29.88Q134.69-28.81 134.34-27.94L134.34-27.94L134.34-27.94Q134-27.06 133.88-26L133.88-26L133.88-26Q133.69-24.75 133.22-22.94L133.22-22.94L133.22-22.94Q132.75-21.13 133.34-20.25L133.34-20.25L133.34-20.25Q133.94-19.38 134.81-19.63L134.81-19.63L134.81-19.63Q135.69-19.88 136.13-19.91L136.13-19.91L136.13-19.91Q136.56-19.94 136.88-20L136.88-20L136.88-20Q137.63-20.06 138.03-20.59L138.03-20.59L138.03-20.59Q138.44-21.13 138.47-21.53L138.47-21.53L138.47-21.53Q138.50-21.94 138.44-22.38L138.44-22.38L138.44-22.38Q138.25-23.63 138.38-24.81ZM158.56-45.63L158.56-45.63L158.56-45.63Q161.69-46.88 161.94-45.88L161.94-45.88L161.94-45.88Q163.50-46.25 164.25-44.94L164.25-44.94L164.25-44.94Q164.50-44.50 165.22-43.13L165.22-43.13L165.22-43.13Q165.94-41.75 166.78-40.19L166.78-40.19L166.78-40.19Q167.63-38.63 168.38-37.25L168.38-37.25L168.38-37.25Q169.13-35.88 169.38-35.41L169.38-35.41L169.38-35.41Q169.63-34.94 170-34.88L170-34.88L170-34.88Q170.38-34.81 170.75-35.06L170.75-35.06L170.75-35.06Q171.56-35.69 171.22-36.94L171.22-36.94L171.22-36.94Q170.88-38.19 170.91-38.91L170.91-38.91L170.91-38.91Q170.94-39.63 171.06-40.25L171.06-40.25L171.06-40.25Q171.44-42 171.19-43.06L171.19-43.06L171.19-43.06Q170.94-44.13 170.94-45.06L170.94-45.06L170.94-45.06Q170.94-46.94 174-46.94L174-46.94L174-46.94Q174.63-46.94 175.44-46.91L175.44-46.91L175.44-46.91Q176.25-46.88 177.88-47.03L177.88-47.03L177.88-47.03Q179.50-47.19 180.72-46.16L180.72-46.16L180.72-46.16Q181.94-45.13 181.50-42.50L181.50-42.50L181.50-42.50Q180.94-38.94 181-37.72L181-37.72L181-37.72Q181.06-36.50 181.06-35.44L181.06-35.44L181.06-35.44Q181.06-34.31 180.69-32.13L180.69-32.13L180.69-32.13Q180-28.25 180.31-26.63L180.31-26.63L180.31-26.63Q180.56-25.19 180.56-24.50L180.56-24.50L180.56-23.50L180.56-23.50Q180.56-23.31 180.69-22.69L180.69-22.69L180.69-22.69Q180.81-22.06 180.63-21.41L180.63-21.41L180.63-21.41Q180.44-20.75 180.56-20L180.56-20L180.56-20Q180.69-19.25 180.25-18.28L180.25-18.28L180.25-18.28Q179.81-17.31 179.84-16.16L179.84-16.16L179.84-16.16Q179.88-15 179.69-14.06L179.69-14.06L179.69-14.06Q179.50-13.13 179.88-11.88L179.88-11.88L179.88-11.88Q180.44-9.94 178.94-5.06L178.94-5.06L178.94-5.06Q178.69-3.88 178.16-3.53L178.16-3.53L178.16-3.53Q177.63-3.19 177.38-3L177.38-3L177.38-3Q177.13-2.81 177-2.19L177-2.19L177-2.19Q176.69-0.94 175.69-1.06L175.69-1.06L175.69-1.06Q174.38-1.25 173.56-3.69L173.56-3.69L173.56-3.69Q172.44-7.06 171.75-7.63L171.75-7.63L171.75-7.63Q171.06-8.19 170.72-9.19L170.72-9.19L170.72-9.19Q170.38-10.19 170.13-11.25L170.13-11.25L170.13-11.25Q169.63-13.88 169.13-14.28L169.13-14.28L169.13-14.28Q168.63-14.69 168.31-15.88L168.31-15.88L168.31-15.88Q168-17.06 167.69-17.56L167.69-17.56L167.69-17.56Q167.38-18.06 167.09-18.69L167.09-18.69L167.09-18.69Q166.81-19.31 166.50-19.94L166.50-19.94L166.50-19.94Q165.69-21.50 164.94-21.31L164.94-21.31L164.94-21.31Q164.50-21.19 164.34-20.22L164.34-20.22L164.34-20.22Q164.19-19.25 164.06-17.88L164.06-17.88L164.06-17.88Q163.69-13.88 162.81-12.13L162.81-12.13L162.81-12.13Q163.38-10.50 163.66-9.16L163.66-9.16L163.66-9.16Q163.94-7.81 163.53-5.97L163.53-5.97L163.53-5.97Q163.13-4.13 162.88-3L162.88-3L162.88-3Q162.63-1.88 162.34-1.03L162.34-1.03L162.34-1.03Q162.06-0.19 161.69 0.25L161.69 0.25L161.69 0.25Q161.31 0.69 160.75 0.59L160.75 0.59L160.75 0.59Q160.19 0.50 160 0.25L160 0.25L160 0.25Q159.81 0 159.63-0.25L159.63-0.25L159.63-0.25Q159.19-1.06 158.13-1.44L158.13-1.44L158.13-1.44Q157.06-1.81 156.63-2.38L156.63-2.38L156.63-2.38Q156.19-2.94 156.06-3.69L156.06-3.69L156.06-3.69Q155.94-4.44 155.91-5.31L155.91-5.31L155.91-5.31Q155.88-6.19 155.47-7.22L155.47-7.22L155.47-7.22Q155.06-8.25 155.06-8.94L155.06-8.94L155.06-8.94Q155.06-9.63 155.19-10.16L155.19-10.16L155.19-10.16Q155.31-10.69 155.44-11.22L155.44-11.22L155.44-11.22Q155.56-11.75 155.19-12.88L155.19-12.88L155.19-12.88Q154.44-15.19 155.63-16.69L155.63-16.69L155.63-16.69Q156.50-17.94 156.38-18.81L156.38-18.81L156.38-18.81Q156-20.63 154.94-21.19L154.94-21.19L154.94-21.19Q154.44-21.50 154.44-21.94L154.44-21.94L154.44-21.94Q154.44-22.88 154.16-23.34L154.16-23.34L154.16-23.34Q153.88-23.81 154.13-24.56L154.13-24.56L154.13-24.56Q154.38-25.31 154.06-25.81L154.06-25.81L154.06-25.81Q154.06-25.88 153.91-27.09L153.91-27.09L153.91-27.09Q153.75-28.31 153.59-30.22L153.59-30.22L153.59-30.22Q153.44-32.13 153.25-34.34L153.25-34.34L153.25-34.34Q153.06-36.56 153-38.63L153-38.63L153-38.63Q152.75-43.38 153.09-44.19L153.09-44.19L153.09-44.19Q153.44-45 154.16-45.38L154.16-45.38L154.16-45.38Q154.88-45.75 155.69-45.88L155.69-45.88L155.69-45.88Q157.44-46.06 158.56-45.63ZM195.63-0.25L195.63-0.25L195.63-0.25Q193.13 1.69 191.38 1.69L191.38 1.69L191.38 1.69Q190.56 1.69 189.66 1.19L189.66 1.19L189.66 1.19Q188.75 0.69 188.47 0L188.47 0L188.47 0Q188.19-0.69 188.19-1.53L188.19-1.53L188.19-1.53Q188.19-2.38 188.19-3.38L188.19-3.38L188.19-3.38Q188.25-5.06 187.69-6.44L187.69-6.44L187.69-6.44Q187.13-7.81 186.94-8.44L186.94-8.44L186.94-8.44Q186.63-9.75 186.75-12.25L186.75-12.25L186.75-12.25Q186.81-14.19 186.63-14.59L186.63-14.59L186.63-14.59Q186.44-15 186.44-15.38L186.44-15.38L186.44-15.38Q186.44-15.75 186.69-18L186.69-18L186.69-18Q187.38-23.38 186.06-23.50L186.06-23.50L186.06-23.50Q185.38-23.63 185.41-23.81L185.41-23.81L185.41-23.81Q185.44-24 185.06-24.66L185.06-24.66L185.06-24.66Q184.69-25.31 184.59-25.69L184.59-25.69L184.59-25.69Q184.50-26.06 184.50-26.88L184.50-26.88L184.50-26.88Q184.50-27.69 184.69-28.38L184.69-28.38L184.69-28.38Q184.88-29.06 185.13-29.75L185.13-29.75L185.13-29.75Q186.88-34.50 186.38-37.75L186.38-37.75L186.38-37.75Q185.69-41.31 185.91-42.78L185.91-42.78L185.91-42.78Q186.13-44.25 186.59-44.88L186.59-44.88L186.59-44.88Q187.06-45.50 187.69-46.03L187.69-46.03L187.69-46.03Q188.31-46.56 189.19-46.88L189.19-46.88L189.19-46.88Q191.06-47.50 192.47-46.56L192.47-46.56L192.47-46.56Q193.88-45.63 195.06-45.38L195.06-45.38L195.06-45.38Q196.25-45.13 197.31-45.06L197.31-45.06L197.31-45.06Q200.06-44.88 200.69-44.38L200.69-44.38L200.69-44.38Q201.31-43.88 201.91-43.59L201.91-43.59L201.91-43.59Q202.50-43.31 202.94-43.13L202.94-43.13L202.94-43.13Q204.19-42.50 204.44-41.94L204.44-41.94L204.44-41.94Q204.69-41.38 205.13-40.91L205.13-40.91L205.13-40.91Q205.56-40.44 206.06-39.88L206.06-39.88L206.06-39.88Q207.19-38.44 207.50-36.81L207.50-36.81L207.50-36.81Q207.69-35.75 207.81-34.94L207.81-34.94L207.81-34.94Q207.94-34.13 208.13-33.38L208.13-33.38L208.13-33.38Q208.69-30.94 209.44-29.06L209.44-29.06L209.44-29.06Q210.94-25.25 210.19-23.19L210.19-23.19L210.06-22.94L210.06-22.94Q210.56-21.69 210.22-20.28L210.22-20.28L210.22-20.28Q209.88-18.88 209.72-18.28L209.72-18.28L209.72-18.28Q209.56-17.69 209.31-16.94L209.31-16.94L209.31-16.94Q209.06-16.19 208.75-15.03L208.75-15.03L208.75-15.03Q208.44-13.88 208.13-13.03L208.13-13.03L208.13-13.03Q207.81-12.19 207.44-11.50L207.44-11.50L207.44-11.50Q206.69-10.13 203.56-6.88L203.56-6.88L203.56-6.88Q202.56-5.88 202.16-4.88L202.16-4.88L202.16-4.88Q201.75-3.88 201-3.31L201-3.31L201-3.31Q200-1.44 199.31-1L199.31-1L199.31-1Q197.94 0.06 195.63-0.25ZM194.75-27.81L194.75-27.81L194.94-24.25L194.94-24.25Q195.06-22.75 194.75-21.47L194.75-21.47L194.75-21.47Q194.44-20.19 194.66-18.75L194.66-18.75L194.66-18.75Q194.88-17.31 194.75-16.31L194.75-16.31L194.75-16.31Q194.63-15.31 194.88-14.69L194.88-14.69L194.88-14.69Q195.13-14.06 195.03-13.41L195.03-13.41L195.03-13.41Q194.94-12.75 194.88-12.13L194.88-12.13L194.88-12.13Q194.75-10.50 195.50-10.38L195.50-10.38L195.50-10.38Q196-10.31 196.44-10.84L196.44-10.84L196.44-10.84Q196.88-11.38 197.19-12.19L197.19-12.19L197.19-12.19Q197.75-13.50 198.13-15.63L198.13-15.63L198.13-15.63Q198.25-16.50 198.75-17.50L198.75-17.50L198.75-17.50Q199.63-19.38 199.63-20.22L199.63-20.22L199.63-20.22Q199.63-21.06 199.69-21.28L199.69-21.28L199.69-21.28Q199.75-21.50 199.84-21.75L199.84-21.75L199.84-21.75Q199.94-22 200.06-22.31L200.06-22.31L200.06-22.31Q200.19-22.63 200.31-23.47L200.31-23.47L200.31-23.47Q200.44-24.31 200.09-25.59L200.09-25.59L200.09-25.59Q199.75-26.88 198.78-27.69L198.78-27.69L198.78-27.69Q197.81-28.50 197.44-29.06L197.44-29.06L197.44-29.06Q197.06-29.63 196.75-30.06L196.75-30.06L196.75-30.06Q196.13-30.94 195.56-30.56L195.56-30.56L195.56-30.56Q194.75-29.94 194.75-27.81ZM256.19-46.50L256.19-46.50L256.19-46.50Q258.19-46.50 259.88-45.44L259.88-45.44L259.88-45.44Q260.88-45.75 261.78-45.75L261.78-45.75L261.78-45.75Q262.69-45.75 264.03-45.50L264.03-45.50L264.03-45.50Q265.38-45.25 265.97-44.25L265.97-44.25L265.97-44.25Q266.56-43.25 266.50-42.56L266.50-42.56L266.50-42.56Q266.38-41.31 266.06-40.75L266.06-40.75L266.06-40.75Q266.63-39.25 265.50-37.06L265.50-37.06L265.50-37.06Q267-33.44 265.44-26.25L265.44-26.25L265.44-26.25Q265.06-24.50 264.69-22.88L264.69-22.88L264.69-22.88Q263.81-19.06 263.81-17.50L263.81-17.50L263.81-17.50Q263.81-16.50 263.97-14.56L263.97-14.56L263.97-14.56Q264.13-12.63 264.25-10.63L264.25-10.63L264.25-10.63Q264.38-8.63 264.38-6.94L264.38-6.94L264.38-6.94Q264.38-5.25 264.03-4.78L264.03-4.78L264.03-4.78Q263.69-4.31 263.53-3.34L263.53-3.34L263.53-3.34Q263.38-2.38 263.13-1.44L263.13-1.44L263.13-1.44Q262.88-0.50 262.44 0.16L262.44 0.16L262.44 0.16Q262 0.81 261.34 0.72L261.34 0.72L261.34 0.72Q260.69 0.63 260.53 0.44L260.53 0.44L260.53 0.44Q260.38 0.25 260.25 0L260.25 0L260.25 0Q260.06-0.63 259.50-0.81L259.50-0.81L259.50-0.81Q258.63-1.06 258.59-1.97L258.59-1.97L258.59-1.97Q258.56-2.88 258.84-3.28L258.84-3.28L258.84-3.28Q259.13-3.69 259.13-4.16L259.13-4.16L259.13-4.16Q259.13-4.63 258.94-5.13L258.94-5.13L258.94-5.13Q258.50-6.13 257.81-6.28L257.81-6.28L257.81-6.28Q257.13-6.44 256.69-7.03L256.69-7.03L256.69-7.03Q256.25-7.63 255.94-8.38L255.94-8.38L255.94-8.38Q255.19-10.19 255.41-11.13L255.41-11.13L255.41-11.13Q255.63-12.06 255.31-13.38L255.31-13.38L255.31-13.38Q254.31-17.38 255.19-19.44L255.19-19.44L255.19-19.44Q255.50-20.31 255.25-20.94L255.25-20.94L255.25-20.94Q254.88-22.25 255.06-23.19L255.06-23.19L255.06-23.19Q255.44-25.06 255.44-26.66L255.44-26.66L255.44-26.66Q255.44-28.25 254.63-28.25L254.63-28.25L254.63-28.25Q253.88-28.25 253.63-24.25L253.63-24.25L253.63-24.25Q253.38-19.81 252.84-19L252.84-19L252.84-19Q252.31-18.19 251.94-17.66L251.94-17.66L251.94-17.66Q251.56-17.13 251.25-16.44L251.25-16.44L251.25-16.44Q250.63-15.06 250.63-13.41L250.63-13.41L250.63-13.41Q250.63-11.75 250.53-11.44L250.53-11.44L250.53-11.44Q250.44-11.13 250.38-10.75L250.38-10.75L250.38-10.75Q250.06-9.63 250.06-8L250.06-8L250.06-8Q250.06-5.75 249.13-4.38L249.13-4.38L249.13-4.38Q249-4.19 248.88-3.59L248.88-3.59L248.88-3.59Q248.75-3 248.50-2.38L248.50-2.38L248.50-2.38Q247.88-0.88 246.88-0.91L246.88-0.91L246.88-0.91Q245.88-0.94 245.34-1.53L245.34-1.53L245.34-1.53Q244.81-2.13 244.50-2.94L244.50-2.94L244.50-2.94Q244.19-3.75 244-4.56L244-4.56L244-4.56Q243.81-5.38 243.38-6.13L243.38-6.13L243.38-6.13Q242.75-7.19 243.69-10.50L243.69-10.50L243.69-10.50Q244.06-11.81 244-12.66L244-12.66L244-12.66Q243.94-13.50 243.13-14L243.13-14L243.13-14Q242.75-14.25 242.34-16.72L242.34-16.72L242.34-16.72Q241.94-19.19 241.66-20.84L241.66-20.84L241.66-20.84Q241.38-22.50 241.13-23.88L241.13-23.88L241.13-23.88Q240.44-27.06 240.03-27.13L240.03-27.13L240.03-27.13Q239.63-27.19 239.53-26.84L239.53-26.84L239.53-26.84Q239.44-26.50 239.50-26L239.50-26L239.50-26Q239.56-25.50 239.66-25L239.66-25L239.66-25Q239.75-24.50 239.78-24.06L239.78-24.06L239.78-24.06Q239.81-23.63 239.41-22.41L239.41-22.41L239.41-22.41Q239-21.19 239.31-19.63L239.31-19.63L239.31-19.63Q239.63-18.06 239.63-17.25L239.63-17.25L239.63-17.25Q239.63-16.44 239.44-15.47L239.44-15.47L239.44-15.47Q239.25-14.50 239.34-13.75L239.34-13.75L239.34-13.75Q239.44-13 239.50-12.38L239.50-12.38L239.50-12.38Q239.63-10.81 238.81-10.31L238.81-10.31L238.81-10.31Q238-9.81 238.03-8.69L238.03-8.69L238.03-8.69Q238.06-7.56 238.75-6.84L238.75-6.84L238.75-6.84Q239.44-6.13 239.25-5.50L239.25-5.50L239.25-5.50Q239.06-4.88 238.81-4.50L238.81-4.50L238.81-4.50Q238.56-4.13 238.63-3.88L238.63-3.88L238.63-3.88Q238.69-3.63 238.63-3.25L238.63-3.25L238.63-3.25Q238.50-1.75 236.25-0.50L236.25-0.50L236.25-0.50Q234.44 0.50 233.25 0.28L233.25 0.28L233.25 0.28Q232.06 0.06 231.50-0.56L231.50-0.56L231.50-0.56Q230.94-1.19 231.06-1.97L231.06-1.97L231.06-1.97Q231.19-2.75 231.09-3.41L231.09-3.41L231.09-3.41Q231-4.06 230.97-4.75L230.97-4.75L230.97-4.75Q230.94-5.44 230.88-6.13L230.88-6.13L230.88-6.13Q230.81-8 230.50-8.66L230.50-8.66L230.50-8.66Q230.19-9.31 230.13-10L230.13-10L230.13-10Q230.06-10.69 230.09-11.28L230.09-11.28L230.09-11.28Q230.13-11.88 230.19-12.38L230.19-12.38L230.19-12.38Q230.25-12.88 230.03-13.44L230.03-13.44L230.03-13.44Q229.81-14 230-14.88L230-14.88L230-14.88Q230.19-15.75 230.06-16.56L230.06-16.56L230.06-16.56Q229.94-17.38 230.09-18.03L230.09-18.03L230.09-18.03Q230.25-18.69 230.38-19.38L230.38-19.38L230.38-19.38Q230.56-21 229.69-21.56L229.69-21.56L229.69-21.56Q228.69-22.38 228.34-23.28L228.34-23.28L228.34-23.28Q228-24.19 228.06-25.63L228.06-25.63L228.06-25.63Q228.13-27.06 228.06-27.97L228.06-27.97L228.06-27.97Q228-28.88 228.41-30.16L228.41-30.16L228.41-30.16Q228.81-31.44 228.81-32.81L228.81-32.81L228.81-32.81Q228.81-34.19 228.72-35.19L228.72-35.19L228.72-35.19Q228.63-36.19 228.50-37.06L228.50-37.06L228.50-37.06Q228.38-37.94 228.25-38.88L228.25-38.88L228.25-38.88Q228.06-40.81 228.44-42.13L228.44-42.13L228.44-42.13Q228.94-43.38 229.72-44.22L229.72-44.22L229.72-44.22Q230.50-45.06 232.25-45L232.25-45L232.25-45Q235.63-44.88 236.31-45.31L236.31-45.31L236.31-45.31Q237.75-46.19 239.56-45.38L239.56-45.38L239.56-45.38Q240.06-45.19 240.44-44.88L240.44-44.88L240.44-44.88Q243.94-44 244.38-42.06L244.38-42.06L244.38-42.06Q245.63-36.81 245.63-35.09L245.63-35.09L245.63-35.09Q245.63-33.38 245.72-33.06L245.72-33.06L245.72-33.06Q245.81-32.75 245.91-32.59L245.91-32.59L245.91-32.59Q246-32.44 246-32.25L246-32.25L246-32.25Q246-32.06 245.88-31.25L245.88-31.25L245.88-31.25Q245.75-30.44 246.06-30L246.06-30L246.06-30Q246.38-29.56 246.78-29.56L246.78-29.56L246.78-29.56Q247.19-29.56 247.56-30L247.56-30L247.56-30Q248-30.50 248.16-31.97L248.16-31.97L248.16-31.97Q248.31-33.44 248.31-33.75L248.31-33.75L248.31-33.75Q248.31-34.31 248.53-34.78L248.53-34.78L248.53-34.78Q248.75-35.25 248.81-35.81L248.81-35.81L248.81-35.81Q248.88-36.38 249-37L249-37L249-37Q249.19-38.63 249.81-39.25L249.81-39.25L249.81-39.25Q250.44-39.88 251.13-40.34L251.13-40.34L251.13-40.34Q251.81-40.81 252-41.69L252-41.69L252-41.69Q252.19-42.56 252.41-43.31L252.41-43.31L252.41-43.31Q252.63-44.06 253.06-44.75L253.06-44.75L253.06-44.75Q254.13-46.50 256.19-46.50ZM275.63-43.13L275.63-43.13L275.63-43.13Q276.31-43.75 276.81-44.47L276.81-44.47L276.81-44.47Q277.31-45.19 278.13-45.81L278.13-45.81L278.13-45.81Q280.31-47.63 282.50-46.88L282.50-46.88L282.50-46.88Q285.19-45.88 287.44-45.63L287.44-45.63L287.44-45.63Q289.69-45.38 290.72-44.50L290.72-44.50L290.72-44.50Q291.75-43.63 292.50-42.63L292.50-42.63L292.50-42.63Q294.31-40.25 294.69-37.44L294.69-37.44L294.69-37.44Q294.75-36.38 295.06-35.94L295.06-35.94L295.06-35.94Q295.88-34.56 295.59-32.25L295.59-32.25L295.59-32.25Q295.31-29.94 295.41-29.03L295.41-29.03L295.41-29.03Q295.50-28.13 295.72-27.69L295.72-27.69L295.72-27.69Q295.94-27.25 296.13-26.81L296.13-26.81L296.13-26.81Q296.63-25.63 296.63-24.44L296.63-24.44L296.63-24.44Q296.63-22.94 295.63-21.44L295.63-21.44L295.63-21.44Q295.19-20.88 295.31-19.25L295.31-19.25L295.31-19.25Q295.44-17.63 295.50-16L295.50-16L295.50-16Q295.56-11.94 295.06-10.97L295.06-10.97L295.06-10.97Q294.56-10 294.34-9.81L294.34-9.81L294.34-9.81Q294.13-9.63 293.94-9.50L293.94-9.50L293.94-9.50Q293-9.06 292.28-6.91L292.28-6.91L292.28-6.91Q291.56-4.75 290.38-3.41L290.38-3.41L290.38-3.41Q289.19-2.06 287.91-1.22L287.91-1.22L287.91-1.22Q286.63-0.38 285.91 0.09L285.91 0.09L285.91 0.09Q285.19 0.56 284.88 1L284.88 1L284.88 1Q284.56 1.44 284.25 1.88L284.25 1.88L284.25 1.88Q283.44 2.88 282.19 2.88L282.19 2.88L282.19 2.88Q280.06 2.88 279.06 1.88L279.06 1.88L279.06 1.88Q278.63 1.31 278.13 0.25L278.13 0.25L278.13 0.25Q277.19-1.44 275.63-2.50L275.63-2.50L275.63-2.50Q273.88-3.69 273.50-6.06L273.50-6.06L273.50-6.06Q273.31-6.88 273.41-7.69L273.41-7.69L273.41-7.69Q273.50-8.50 273.31-9.75L273.31-9.75L273.31-9.75Q273.19-11 272.81-12L272.81-12L272.81-12Q272.44-13 272.38-13.88L272.38-13.88L272.38-13.88Q272.06-16.50 270.63-16.69L270.63-16.69L270.63-16.69Q269.56-16.81 269.38-19.88L269.38-19.88L269.38-19.88Q269.31-21.44 269.50-22.84L269.50-22.84L269.50-22.84Q269.69-24.25 270-25.25L270-25.25L270-25.25Q270.50-27.06 270.31-29.47L270.31-29.47L270.31-29.47Q270.13-31.88 270.31-33.75L270.31-33.75L270.31-33.75Q270.63-37.25 271.81-39.44L271.81-39.44L271.81-39.44Q272.38-40.38 273.47-41.31L273.47-41.31L273.47-41.31Q274.56-42.25 275.63-43.13ZM279.59-25.25L279.59-25.25L279.59-25.25Q279.75-24.38 280.22-23.84L280.22-23.84L280.22-23.84Q280.69-23.31 280.91-22.19L280.91-22.19L280.91-22.19Q281.13-21.06 281.06-19.72L281.06-19.72L281.06-19.72Q281-18.38 281-17.16L281-17.16L281-17.16Q281-15.94 281.13-14.97L281.13-14.97L281.13-14.97Q281.25-14 281.50-13.19L281.50-13.19L281.50-13.19Q282.19-11.25 283.44-11.25L283.44-11.25L283.44-11.25Q285.38-11.25 286.13-18.75L286.13-18.75L286.13-18.75Q286.38-20.81 286.38-24.03L286.38-24.03L286.38-24.03Q286.38-27.25 285.38-29.59L285.38-29.59L285.38-29.59Q284.38-31.94 282.94-31.94L282.94-31.94L282.94-31.94Q281.56-31.94 280.44-28.88L280.44-28.88L280.44-28.88Q279.44-26.13 279.59-25.25ZM316.44-44.94L316.44-44.94L318.44-45.06L318.44-45.06Q320.56-45.06 321.47-44.38L321.47-44.38L321.47-44.38Q322.38-43.69 322.84-43.13L322.84-43.13L322.84-43.13Q323.31-42.56 323.69-41.97L323.69-41.97L323.69-41.97Q324.06-41.38 324.72-40.75L324.72-40.75L324.72-40.75Q325.38-40.13 325.38-39.28L325.38-39.28L325.38-39.28Q325.38-38.44 325.84-37.94L325.84-37.94L325.84-37.94Q326.31-37.44 326.31-36.31L326.31-36.31L326.31-36.31Q326.31-35.19 326.28-34.16L326.28-34.16L326.28-34.16Q326.25-33.13 326.06-32.47L326.06-32.47L326.06-32.47Q325.88-31.81 325.88-31.16L325.88-31.16L325.88-31.16Q325.88-30.50 326.16-29.97L326.16-29.97L326.16-29.97Q326.44-29.44 326.22-27.41L326.22-27.41L326.22-27.41Q326-25.38 325.53-23.31L325.53-23.31L325.53-23.31Q325.06-21.25 324.31-19.75L324.31-19.75L324.31-19.75Q322.81-16.94 319.44-15.31L319.44-15.31L319.44-15.31Q319.75-14.56 320.16-13.66L320.16-13.66L320.16-13.66Q320.56-12.75 320.94-11.81L320.94-11.81L320.94-11.81Q321.75-9.50 321.75-8.47L321.75-8.47L321.75-8.47Q321.75-7.44 321.84-6.97L321.84-6.97L321.84-6.97Q321.94-6.50 322.06-6.25L322.06-6.25L322.06-6.25Q322.19-6 322.41-5.88L322.41-5.88L322.41-5.88Q322.63-5.75 323.06-5.41L323.06-5.41L323.06-5.41Q323.50-5.06 323.75-4.25L323.75-4.25L323.75-4.25Q324-3.44 324-2.56L324-2.56L324-2.56Q324-0.56 323.53-0.09L323.53-0.09L323.53-0.09Q323.06 0.38 322.53 0.53L322.53 0.53L322.53 0.53Q322 0.69 321.44 0.75L321.44 0.75L321.44 0.75Q320 0.94 319.63 0.38L319.63 0.38L319.63 0.38Q319.13-0.13 319.09-0.66L319.09-0.66L319.09-0.66Q319.06-1.19 318.88-1.59L318.88-1.59L318.88-1.59Q318.69-2 318.31-2.09L318.31-2.09L318.31-2.09Q317.94-2.19 317.78-2.88L317.78-2.88L317.78-2.88Q317.63-3.56 317.34-3.78L317.34-3.78L317.34-3.78Q317.06-4 316.19-3.88L316.19-3.88L316.19-3.88Q314.63-3.56 313.88-5.75L313.88-5.75L313.88-5.75Q313.69-6.25 313.50-7.06L313.50-7.06L313.50-7.06Q313.31-7.88 313.06-8.63L313.06-8.63L313.06-8.63Q312.56-10.44 311.91-10.59L311.91-10.59L311.91-10.59Q311.25-10.75 310.94-10.44L310.94-10.44L310.94-10.44Q310.63-10.13 310.47-9.59L310.47-9.59L310.47-9.59Q310.31-9.06 310.31-8.41L310.31-8.41L310.31-8.41Q310.31-7.75 310.47-7L310.47-7L310.47-7Q310.63-6.25 310.50-5.75L310.50-5.75L310.50-5.75Q310.38-5.25 310.16-4.94L310.16-4.94L310.16-4.94Q309.94-4.63 309.69-4.38L309.69-4.38L309.69-4.38Q309.19-4.06 309.09-3.13L309.09-3.13L309.09-3.13Q309-2.19 308.81-1.50L308.81-1.50L308.81-1.50Q308.44 0.19 307.81 0.63L307.81 0.63L307.81 0.63Q307.19 1.06 306.56 1.16L306.56 1.16L306.56 1.16Q305.94 1.25 305.31 1.13L305.31 1.13L305.31 1.13Q303.75 0.81 303.38 0.03L303.38 0.03L303.38 0.03Q303-0.75 302.94-1.16L302.94-1.16L302.94-1.16Q302.88-1.56 302.91-1.94L302.91-1.94L302.91-1.94Q302.94-2.31 303-2.75L303-2.75L303-2.75Q303.06-3.19 303.03-3.78L303.03-3.78L303.03-3.78Q303-4.38 302.75-5.38L302.75-5.38L302.75-5.38Q302.50-6.38 302.44-7.75L302.44-7.75L302.38-9.38L302.38-9.38Q302.38-9.63 302.81-10.22L302.81-10.22L302.81-10.22Q303.25-10.81 303.09-11.59L303.09-11.59L303.09-11.59Q302.94-12.38 302.38-12.59L302.38-12.59L302.38-12.59Q301.81-12.81 301.81-13.13L301.81-13.13L301.81-13.13Q301.81-13.44 301.94-14.69L301.94-14.69L301.94-14.69Q302.06-15.94 301.84-17.81L301.84-17.81L301.84-17.81Q301.63-19.69 301.56-21.13L301.56-21.13L301.56-21.13Q301.31-24.25 300.47-24.66L300.47-24.66L300.47-24.66Q299.63-25.06 299.50-25.66L299.50-25.66L299.50-25.66Q299.38-26.25 299.50-27L299.50-27L299.50-27Q299.63-27.75 299.78-28.88L299.78-28.88L299.78-28.88Q299.94-30 300.13-31.16L300.13-31.16L300.13-31.16Q300.31-32.31 300.47-33.31L300.47-33.31L300.47-33.31Q300.63-34.31 300.69-34.69L300.69-34.69L300.69-34.69Q300.75-35.06 300.72-35.41L300.72-35.41L300.72-35.41Q300.69-35.75 300.69-36.06L300.69-36.06L300.69-36.06Q300.56-37.06 300.69-37.81L300.69-37.81L300.69-37.81Q300.94-39.25 300.81-39.84L300.81-39.84L300.81-39.84Q300.69-40.44 301.03-41.66L301.03-41.66L301.03-41.66Q301.38-42.88 301.63-43.38L301.63-43.38L301.63-43.38Q301.88-43.88 302.56-44.13L302.56-44.13L302.56-44.13Q303.25-44.38 303.91-44.84L303.91-44.84L303.91-44.84Q304.56-45.31 305.13-45.78L305.13-45.78L305.13-45.78Q305.69-46.25 306.13-46.66L306.13-46.66L306.13-46.66Q306.56-47.06 307.19-47.25L307.19-47.25L307.19-47.25Q309-47.63 309.84-47.34L309.84-47.34L309.84-47.34Q310.69-47.06 311.06-46.75L311.06-46.75L311.06-46.75Q311.44-46.44 311.97-46.13L311.97-46.13L311.97-46.13Q312.50-45.81 313.09-45.66L313.09-45.66L313.09-45.66Q313.69-45.50 314.19-45.50L314.19-45.50L314.19-45.50Q315.50-45.38 315.78-45.16L315.78-45.16L315.78-45.16Q316.06-44.94 316.44-44.94ZM311.25-27.50L311.25-27.50L311.63-21.81L311.63-21.81Q311.63-21.25 311.56-20.72L311.56-20.72L311.56-20.72Q311.50-20.19 311.44-19.75L311.44-19.75L311.44-19.75Q311.38-18.81 312.13-18.63L312.13-18.63L312.13-18.63Q312.75-18.50 313.13-18.97L313.13-18.97L313.13-18.97Q313.50-19.44 313.81-20.25L313.81-20.25L313.81-20.25Q314.56-21.81 314.31-22.25L314.31-22.25L314.31-22.25Q313.81-22.88 314.03-23.34L314.03-23.34L314.03-23.34Q314.25-23.81 314.97-25.19L314.97-25.19L314.97-25.19Q315.69-26.56 316.03-27.56L316.03-27.56L316.03-27.56Q316.38-28.56 316.19-29.72L316.19-29.72L316.19-29.72Q316-30.88 316-31.31L316-31.31L316-32L316-32Q316-32.50 315.53-32.91L315.53-32.91L315.53-32.91Q315.06-33.31 314.88-33.34L314.88-33.34L314.88-33.34Q314.69-33.38 314.56-33.38L314.56-33.38L314.56-33.38Q314-33.25 313.50-33.47L313.50-33.47L313.50-33.47Q313-33.69 312.56-33.66L312.56-33.66L312.56-33.66Q312.13-33.63 311.56-33.06L311.56-33.06L311.56-33.06Q311-32.50 310.94-31.91L310.94-31.91L310.94-31.91Q310.88-31.31 310.94-30.56L310.94-30.56L310.94-30.56Q311.25-28.31 311.25-27.50ZM330.91-45.88L330.91-45.88L330.91-45.88Q332.31-45.75 333.41-45.78L333.41-45.78L333.41-45.78Q334.50-45.81 336.69-45.75L336.69-45.75L336.69-45.75Q340.31-45.56 341.81-46.25L341.81-46.25L341.81-46.25Q344.88-47.81 346.75-46.63L346.75-46.63L346.75-46.63Q347.63-46.13 348.44-46L348.44-46L348.44-46Q349.25-45.88 350.75-46.75L350.75-46.75L350.75-46.75Q352.38-47.44 353.44-47.06L353.44-47.06L353.44-47.06Q354.50-46.69 355-46.13L355-46.13L355-46.13Q355.50-45.56 355.66-44.16L355.66-44.16L355.66-44.16Q355.81-42.75 355.72-41.38L355.72-41.38L355.72-41.38Q355.63-40 355.44-38.81L355.44-38.81L355.44-38.81Q355.06-35.63 355.16-34.63L355.16-34.63L355.16-34.63Q355.25-33.63 355.41-32.56L355.41-32.56L355.41-32.56Q355.56-31.50 355.50-30.50L355.50-30.50L355.50-30.50Q355.38-28.06 353.50-27.75L353.50-27.75L353.50-27.75Q352.13-27.56 351.50-28.41L351.50-28.41L351.50-28.41Q350.88-29.25 350.47-30.28L350.47-30.28L350.47-30.28Q350.06-31.31 349.66-32.13L349.66-32.13L349.66-32.13Q349.25-32.94 348.50-32.72L348.50-32.72L348.50-32.72Q347.75-32.50 347.56-31.09L347.56-31.09L347.56-31.09Q347.38-29.69 347.44-27.78L347.44-27.78L347.44-27.78Q347.50-25.88 347.69-23.84L347.69-23.84L347.69-23.84Q347.88-21.81 347.94-20.41L347.94-20.41L347.94-20.41Q348-19 348.09-17.56L348.09-17.56L348.09-17.56Q348.19-16.13 348.19-14.88L348.19-14.88L348.19-14.88Q348.19-12.19 347.44-11.19L347.44-11.19L347.44-11.19Q347.06-10.69 347.06-10L347.06-10L347.06-10Q347.06-9.31 347.22-8.56L347.22-8.56L347.22-8.56Q347.38-7.81 347.56-7.06L347.56-7.06L347.56-7.06Q347.75-6.31 347.75-5.25L347.75-5.25L347.75-5.25Q347.75-2.75 345.50-1.75L345.50-1.75L345.50-1.75Q344.69-1.38 344-0.50L344-0.50L344-0.50Q343.31 0.38 342.97 0.66L342.97 0.66L342.97 0.66Q342.63 0.94 342.16 0.84L342.16 0.84L342.16 0.84Q341.69 0.75 341.47 0.41L341.47 0.41L341.47 0.41Q341.25 0.06 341.06-0.31L341.06-0.31L341.06-0.31Q340.69-1.31 340-1.63L340-1.63L340-1.63Q339.19-1.81 339.03-3L339.03-3L339.03-3Q338.88-4.19 338.84-5.09L338.84-5.09L338.84-5.09Q338.81-6 338.69-7.31L338.69-7.31L338.69-7.31Q338.56-8.63 337.88-9.44L337.88-9.44L337.88-9.44Q337.19-10.25 336.75-10.47L336.75-10.47L336.75-10.47Q336.31-10.69 336.19-11.53L336.19-11.53L336.19-11.53Q336.06-12.38 336.22-13.25L336.22-13.25L336.22-13.25Q336.38-14.13 336.63-15.19L336.63-15.19L336.63-15.19Q337.38-18.25 337.44-20.94L337.44-20.94L337.44-20.94Q337.63-25.94 337.44-27.56L337.44-27.56L337.44-27.56Q337.19-30.81 335.69-30.81L335.69-30.81L335.69-30.81Q334.94-30.75 334.63-30.16L334.63-30.16L334.63-30.16Q334.31-29.56 333.94-28.75L333.94-28.75L333.94-28.75Q333.06-26.69 330.75-27.63L330.75-27.63L330.75-27.63Q329.94-28 329.72-28.81L329.72-28.81L329.72-28.81Q329.50-29.63 329.47-30.72L329.47-30.72L329.47-30.72Q329.44-31.81 329.41-33.03L329.41-33.03L329.41-33.03Q329.38-34.25 328.97-35.34L328.97-35.34L328.97-35.34Q328.56-36.44 328.19-37.44L328.19-37.44L328.19-37.44Q327.81-38.44 327.88-39.44L327.88-39.44L327.88-39.44Q327.94-40.44 328.34-41.38L328.34-41.38L328.34-41.38Q328.75-42.31 328.59-43.25L328.59-43.25L328.59-43.25Q328.44-44.19 328.97-45.09L328.97-45.09L328.97-45.09Q329.50-46 330.91-45.88ZM383.56-46.25L383.56-46.25L383.56-46.25Q384.38-46.25 385.44-44.94L385.44-44.94L385.44-44.94Q385.94-44.19 385.94-43.13L385.94-43.13L385.94-43.13Q385.94-41.06 384.50-39.53L384.50-39.53L384.50-39.53Q383.06-38 382.56-37L382.56-37L382.56-37Q382.06-36 382.03-35L382.03-35L382.03-35Q382-34 381.81-33.31L381.81-33.31L381.81-33.31Q381.63-32.63 381.25-32L381.25-32L381.25-32Q380.44-30.56 378.94-30.19L378.94-30.19L378.94-30.19Q378.63-28.75 377.78-27.69L377.78-27.69L377.78-27.69Q376.94-26.63 376.72-26.19L376.72-26.19L376.72-26.19Q376.50-25.75 376.38-25.38L376.38-25.38L376.38-25.38Q376.06-24.56 375.63-23.94L375.63-23.94L375.63-23.94Q375.25-16.38 375.38-13.13L375.38-13.13L375.38-13.13Q375.50-8 373.56-5.81L373.56-5.81L373.56-5.81Q372.88-4.88 372.63-2.84L372.63-2.84L372.63-2.84Q372.38-0.81 372.13-0.03L372.13-0.03L372.13-0.03Q371.88 0.75 371.13 0.84L371.13 0.84L371.13 0.84Q370.38 0.94 369.84 0.63L369.84 0.63L369.84 0.63Q369.31 0.31 368.97-0.19L368.97-0.19L368.97-0.19Q368.63-0.69 368.34-1.25L368.34-1.25L368.34-1.25Q368.06-1.81 367.41-2.44L367.41-2.44L367.41-2.44Q366.75-3.06 366.78-4.44L366.78-4.44L366.78-4.44Q366.81-5.81 366.91-6.94L366.91-6.94L366.91-6.94Q367-8.06 366.72-8.75L366.72-8.75L366.72-8.75Q366.44-9.44 366.06-10.06L366.06-10.06L366.06-10.06Q365.69-10.69 365.31-11.25L365.31-11.25L365.31-11.25Q364.56-12.44 364.72-13.84L364.72-13.84L364.72-13.84Q364.88-15.25 365-16.25L365-16.25L365-16.25Q365.44-18.81 365.38-19.56L365.38-19.56L365.38-19.56Q365.13-21.31 365.50-23.44L365.50-23.44L365.50-23.44Q365-24.31 364.75-25.25L364.75-25.25L364.75-25.25Q364.31-26.88 363.38-27.19L363.38-27.19L363.38-27.19Q361.50-27.75 360.75-30.25L360.75-30.25L360.75-30.25Q360.19-32.19 360.47-32.75L360.47-32.75L360.47-32.75Q360.75-33.31 360.81-33.50L360.81-33.50L360.81-33.50Q361-34 358.75-35.94L358.75-35.94L358.75-35.94Q357.63-36.88 357.16-38.25L357.16-38.25L357.16-38.25Q356.69-39.63 356.16-40.53L356.16-40.53L356.16-40.53Q355.63-41.44 355.13-42.25L355.13-42.25L355.13-42.25Q354.13-44 354.63-45.25L354.63-45.25L354.63-45.25Q355.13-46.13 356.50-46.34L356.50-46.34L356.50-46.34Q357.88-46.56 359.25-46.09L359.25-46.09L359.25-46.09Q360.63-45.63 361.56-45.56L361.56-45.56L361.56-45.56Q362.50-45.50 363.34-45.53L363.34-45.53L363.34-45.53Q364.19-45.56 364.84-45.59L364.84-45.59L364.84-45.59Q365.50-45.63 365.88-45.56L365.88-45.56L365.88-45.56Q366.13-45 366.66-44.50L366.66-44.50L366.66-44.50Q367.19-44 367.41-43.13L367.41-43.13L367.41-43.13Q367.63-42.25 367.66-40.81L367.66-40.81L367.66-40.81Q367.69-39.38 368.28-38.38L368.28-38.38L368.28-38.38Q368.88-37.38 369.03-36.56L369.03-36.56L369.03-36.56Q369.19-35.75 369.28-35L369.28-35L369.28-35Q369.38-34.25 369.50-33.72L369.50-33.72L369.50-33.72Q369.63-33.19 370.06-33.13L370.06-33.13L370.06-33.13Q370.50-33 370.69-33.63L370.69-33.63L370.69-33.63Q370.88-34.25 371.06-35.19L371.06-35.19L371.06-35.19Q371.63-38 372.31-38.94L372.31-38.94L372.31-38.94Q373.13-40 373.41-41.81L373.41-41.81L373.41-41.81Q373.69-43.63 373.88-44.44L373.88-44.44L373.88-44.44Q374.06-45.25 374.69-45.78L374.69-45.78L374.69-45.78Q375.31-46.31 376.63-46.13L376.63-46.13L376.63-46.13Q377.94-45.94 379.50-45.72L379.50-45.72L379.50-45.72Q381.06-45.50 382.06-45.88L382.06-45.88L382.06-45.88Q383.06-46.25 383.56-46.25ZM424.50 0.38L424.50 0.38L424.50 0.38Q424.13 1.06 423.50 1.41L423.50 1.41L423.50 1.41Q422.88 1.75 422.25 1.28L422.25 1.28L422.25 1.28Q421.63 0.81 421.34 0.88L421.34 0.88L421.34 0.88Q421.06 0.94 420.81 1L420.81 1L420.81 1Q420.25 1.06 419.69 0.19L419.69 0.19L419.69 0.19Q419.13-0.69 419.06-1.22L419.06-1.22L419.06-1.22Q419-1.75 419.06-2.25L419.06-2.25L419.06-2.25Q419.31-3.38 418.72-4.25L418.72-4.25L418.72-4.25Q418.13-5.13 417.91-5.56L417.91-5.56L417.91-5.56Q417.69-6 417.69-6.84L417.69-6.84L417.69-6.84Q417.69-7.69 417.59-7.91L417.59-7.91L417.59-7.91Q417.50-8.13 417.44-8.25L417.44-8.25L417.44-8.25Q417.13-8.81 417.22-10L417.22-10L417.22-10Q417.31-11.19 416.88-11.66L416.88-11.66L416.88-11.66Q416.44-12.13 415.72-12.38L415.72-12.38L415.72-12.38Q415-12.63 414.59-12.22L414.59-12.22L414.59-12.22Q414.19-11.81 413.84-11.25L413.84-11.25L413.84-11.25Q413.50-10.69 413-10.28L413-10.28L413-10.28Q412.50-9.88 411.72-10.06L411.72-10.06L411.72-10.06Q410.94-10.25 410-9.69L410-9.69L410-9.69Q409.06-9.13 408.88-8.34L408.88-8.34L408.88-8.34Q408.69-7.56 408.44-6.75L408.44-6.75L408.44-6.75Q408.19-5.94 408.28-5.25L408.28-5.25L408.28-5.25Q408.38-4.56 408.28-3.91L408.28-3.91L408.28-3.91Q408.19-3.25 407.94-2.63L407.94-2.63L407.94-2.63Q407.44-1.06 406.75-0.94L406.75-0.94L406.75-0.94Q406.19-0.88 405.56-0.94L405.56-0.94L405.56-0.94Q404.88 0.31 403.94 0.56L403.94 0.56L403.94 0.56Q401.38 1.13 400.88-0.25L400.88-0.25L400.88-0.25Q400.56-1.06 400.50-2.38L400.50-2.38L400.50-2.38Q400.38-5 399.94-5.94L399.94-5.94L399.94-5.94Q399.50-6.88 399.72-8.19L399.72-8.19L399.72-8.19Q399.94-9.50 399.88-10.81L399.88-10.81L399.88-10.81Q399.81-12.13 399.88-12.81L399.88-12.81L399.88-12.81Q399.94-13.50 400.03-14.06L400.03-14.06L400.03-14.06Q400.13-14.63 400.25-15.16L400.25-15.16L400.25-15.16Q400.38-15.69 400.41-16.41L400.41-16.41L400.41-16.41Q400.44-17.13 400.63-18.06L400.63-18.06L400.63-18.06Q400.81-19 401-20L401-20L401-20Q401.50-22.50 401.38-23.75L401.38-23.75L401.38-23.75Q401.25-25 401.59-25.88L401.59-25.88L401.59-25.88Q401.94-26.75 402.38-27.44L402.38-27.44L402.38-27.44Q403.50-29.25 403.44-30.41L403.44-30.41L403.44-30.41Q403.38-31.56 403.34-32.22L403.34-32.22L403.34-32.22Q403.31-32.88 403.38-33.56L403.38-33.56L403.38-33.56Q403.69-36.94 406.56-44.13L406.56-44.13L406.56-44.13Q406.75-44.81 407.75-45.19L407.75-45.19L407.75-45.19Q408.75-45.56 409.78-45.28L409.78-45.28L409.78-45.28Q410.81-45 411.47-45.03L411.47-45.03L411.47-45.03Q412.13-45.06 412.59-45.53L412.59-45.53L412.59-45.53Q413.06-46 413.59-46.44L413.59-46.44L413.59-46.44Q414.13-46.88 414.88-47.16L414.88-47.16L414.88-47.16Q415.63-47.44 416.56-47.44L416.56-47.44L416.56-47.44Q417.50-47.44 418.56-46.88L418.56-46.88L418.56-46.88Q420.31-45.94 420.88-45.13L420.88-45.13L420.88-45.13Q421.44-44.31 421.63-43.81L421.63-43.81L421.63-43.81Q421.81-43.31 422.25-42.44L422.25-42.44L422.25-42.44Q422.69-41.56 422.66-40.88L422.66-40.88L422.66-40.88Q422.63-40.19 422.88-39.25L422.88-39.25L422.88-39.25Q423.13-38.31 422.88-37.06L422.88-37.06L422.88-37.06Q422.63-35.81 422.88-34.59L422.88-34.59L422.88-34.59Q423.13-33.38 423.13-32.94L423.13-32.94L423.13-32.94Q423.13-32.50 423.19-32.13L423.19-32.13L423.19-32.13Q423.25-31.06 423.63-30.25L423.63-30.25L423.63-30.25Q424-29.38 423.84-28.09L423.84-28.09L423.84-28.09Q423.69-26.81 423.78-25.97L423.78-25.97L423.78-25.97Q423.88-25.13 424.44-24.25L424.44-24.25L424.44-24.25Q425.50-22.56 425.19-20.50L425.19-20.50L425.19-20.50Q425.13-19.94 425.22-19.28L425.22-19.28L425.22-19.28Q425.31-18.63 425.31-18.09L425.31-18.09L425.31-18.09Q425.31-17.56 425.19-16.75L425.19-16.75L425.19-16.75Q425-15.56 425.25-13.88L425.25-13.88L425.25-13.88Q425.63-10.75 425.63-9.69L425.63-9.69L425.63-9.69Q425.63-8.63 425.69-7.91L425.69-7.91L425.69-7.91Q425.75-7.19 425.81-6.38L425.81-6.38L425.81-6.38Q426-4.25 425.84-2.09L425.84-2.09L425.84-2.09Q425.69 0.06 424.50 0.38ZM414.94-24.81L414.94-24.81L414.94-24.81Q415.06-26 414.84-27.75L414.84-27.75L414.84-27.75Q414.63-29.50 414.63-30.34L414.63-30.34L414.63-30.34Q414.63-31.19 414.50-31.81L414.50-31.81L414.50-31.81Q414.31-32.81 413.44-32.06L413.44-32.06L413.44-32.06Q412.44-33.06 411.81-32.13L411.81-32.13L411.81-32.13Q411.38-31.44 411.38-29.88L411.38-29.88L411.38-29.88Q411.25-28.81 410.91-27.94L410.91-27.94L410.91-27.94Q410.56-27.06 410.44-26L410.44-26L410.44-26Q410.25-24.75 409.78-22.94L409.78-22.94L409.78-22.94Q409.31-21.13 409.91-20.25L409.91-20.25L409.91-20.25Q410.50-19.38 411.38-19.63L411.38-19.63L411.38-19.63Q412.25-19.88 412.69-19.91L412.69-19.91L412.69-19.91Q413.13-19.94 413.44-20L413.44-20L413.44-20Q414.19-20.06 414.59-20.59L414.59-20.59L414.59-20.59Q415-21.13 415.03-21.53L415.03-21.53L415.03-21.53Q415.06-21.94 415-22.38L415-22.38L415-22.38Q414.81-23.63 414.94-24.81ZM435.94 0.94L435.94 0.94L435.94 0.94Q435.06 0.88 434.16-0.94L434.16-0.94L434.16-0.94Q433.25-2.75 432.91-5.56L432.91-5.56L432.91-5.56Q432.56-8.38 432.44-9.38L432.44-9.38L432.44-9.38Q432.31-10.38 432.19-10.88L432.19-10.88L432.19-10.88Q432-11.81 431.47-12.53L431.47-12.53L431.47-12.53Q430.94-13.25 430.81-13.63L430.81-13.63L430.81-13.63Q430.69-14.19 430.75-16.44L430.75-16.44L430.75-16.44Q430.88-21.25 430.31-22.81L430.31-22.81L430.31-22.81Q430.06-23.50 430.13-23.94L430.13-23.94L430.13-23.94Q430.19-24.38 430.16-24.88L430.16-24.88L430.16-24.88Q430.13-25.38 429.81-25.94L429.81-25.94L429.81-25.94Q429.50-26.50 429.19-27.25L429.19-27.25L429.19-27.25Q428.19-29.25 428.19-30L428.19-30L428.19-30Q428.19-30.94 428.81-32.13L428.81-32.13L428.81-32.13Q430.19-34.44 430.41-35.34L430.41-35.34L430.41-35.34Q430.63-36.25 430.59-37.66L430.59-37.66L430.59-37.66Q430.56-39.06 430.56-40.50L430.56-40.50L430.56-40.50Q430.44-44.19 431.19-45.13L431.19-45.13L431.19-45.13Q431.69-45.63 432.38-45.81L432.38-45.81L432.38-45.81Q433.06-46 434.13-46.38L434.13-46.38L434.13-46.38Q436.25-47.13 437.34-47.13L437.34-47.13L437.34-47.13Q438.44-47.13 439.09-46.53L439.09-46.53L439.09-46.53Q439.75-45.94 440.63-45.84L440.63-45.84L440.63-45.84Q441.50-45.75 441.84-45.84L441.84-45.84L441.84-45.84Q442.19-45.94 442.44-46L442.44-46L442.44-46Q443.19-46.31 443.69-46.31L443.69-46.31L443.69-46.31Q444.50-46.31 444.88-45.69L444.88-45.69L444.88-45.69Q445.25-45.06 445.56-44.66L445.56-44.66L445.56-44.66Q445.88-44.25 446.59-44.44L446.59-44.44L446.59-44.44Q447.31-44.63 447.69-44.63L447.69-44.63L447.69-44.63Q448.06-44.63 448.31-44.63L448.31-44.63L448.31-44.63Q449.25-44.50 449.94-44.69L449.94-44.69L449.94-44.69Q451.31-45.13 452.06-44.25L452.06-44.25L452.06-44.25Q452.25-43.81 452.94-43.63L452.94-43.63L452.94-43.63Q453.63-43.44 454.13-43.13L454.13-43.13L454.13-43.13Q455.31-42.50 455.75-40.94L455.75-40.94L455.75-40.94Q456.63-38.06 456-35L456-35L456-35Q455.75-33.94 455.59-33.31L455.59-33.31L455.59-33.31Q455.44-32.69 455.34-32.22L455.34-32.22L455.34-32.22Q455.25-31.75 455.22-31.31L455.22-31.31L455.22-31.31Q455.19-30.88 455.16-30.25L455.16-30.25L455.16-30.25Q455.13-29.63 455.13-28.88L455.13-28.88L455.13-27.19L455.13-27.19Q455.13-25.25 455.25-24.13L455.25-24.13L455.25-24.13Q455.63-21 452.44-19.63L452.44-19.63L452.44-19.63Q451.38-19.19 450.94-18.81L450.94-18.81L450.94-18.81Q450.50-18.44 450.19-17.69L450.19-17.69L450.19-17.69Q449.88-16.94 449.03-15.81L449.03-15.81L449.03-15.81Q448.19-14.69 446.47-14.03L446.47-14.03L446.47-14.03Q444.75-13.38 443.50-12.94L443.50-12.94L443.50-12.94Q442.25-12.50 441.94-11.88L441.94-11.88L441.94-11.88Q441.50-11.06 441.72-8.03L441.72-8.03L441.72-8.03Q441.94-5 441.88-4.19L441.88-4.19L441.88-4.19Q441.81-3.38 441.69-2.84L441.69-2.84L441.69-2.84Q441.56-2.31 441.06-2L441.06-2L441.06-2Q440.56-1.69 440.19-1.69L440.19-1.69L440.19-1.69Q439.81-1.69 439.41-1.31L439.41-1.31L439.41-1.31Q439-0.94 438.69-0.56L438.69-0.56L438.69-0.56Q438.38-0.19 438 0.13L438 0.13L438 0.13Q437.13 0.94 435.94 0.94ZM440.19-34.06L440.19-34.06L440.19-34.06Q439.81-33.69 439.44-31.88L439.44-31.88L439.44-31.88Q439.06-30.06 439.06-29L439.06-29L439.06-29Q439.06-27.94 439.50-27.09L439.50-27.09L439.50-27.09Q439.94-26.25 439.91-25.72L439.91-25.72L439.91-25.72Q439.88-25.19 439.78-24.59L439.78-24.59L439.78-24.59Q439.69-24 439.69-23.38L439.69-23.38L439.69-23.38Q439.56-21.88 439.94-21.50L439.94-21.50L439.94-21.50Q440.31-21.13 440.78-21.22L440.78-21.22L440.78-21.22Q441.25-21.31 441.75-21.56L441.75-21.56L441.75-21.56Q442.25-21.81 442.66-22.09L442.66-22.09L442.66-22.09Q443.06-22.38 443.47-22.50L443.47-22.50L443.47-22.50Q443.88-22.63 444.06-23.06L444.06-23.06L444.06-23.06Q444.25-23.50 444.63-23.81L444.63-23.81L444.63-23.81Q445.06-24.13 445.22-24.66L445.22-24.66L445.22-24.66Q445.38-25.19 445.53-25.78L445.53-25.78L445.53-25.78Q445.69-26.38 445.50-26.91L445.50-26.91L445.50-26.91Q445.31-27.44 444.81-28.50L444.81-28.50L444.81-28.50Q444.44-29.56 444.56-30.19L444.56-30.19L444.56-30.19Q445.06-32.81 443.94-33.81L443.94-33.81L443.94-33.81Q442.50-34.69 441.53-34.56L441.53-34.56L441.53-34.56Q440.56-34.44 440.19-34.06ZM474.19-34.56L474.19-34.56L474.19-34.56Q472.06-34 473.38-27.31L473.38-27.31L473.38-27.31Q473.81-25.50 473.84-24.28L473.84-24.28L473.84-24.28Q473.88-23.06 473.50-21.63L473.50-21.63L473.50-21.63Q473.13-20.19 473.13-19.31L473.13-19.31L473.13-19.31Q473.13-18.44 472.88-17.25L472.88-17.25L472.88-17.25Q472.94-15.94 472.84-14.59L472.84-14.59L472.84-14.59Q472.75-13.25 472.69-12L472.69-12L472.69-12Q472.50-8.94 472.63-8.38L472.63-8.38L472.63-8.38Q472.75-7.81 473.03-7.66L473.03-7.66L473.03-7.66Q473.31-7.50 473.69-7.38L473.69-7.38L473.69-7.38Q474.56-7.06 474.75-6.56L474.75-6.56L474.75-6.56Q474.94-6.06 474.91-5.16L474.91-5.16L474.91-5.16Q474.88-4.25 474.69-3.25L474.69-3.25L474.69-3.25Q474.13-0.88 473.13-0.19L473.13-0.19L473.13-0.19Q472.56 0.19 471.97 0.06L471.97 0.06L471.97 0.06Q471.38-0.06 470.69-0.19L470.69-0.19L470.69-0.19Q468.56-0.56 467.06 0.19L467.06 0.19L467.06 0.19Q463.38 2.19 461.38 0.19L461.38 0.19L461.38 0.19Q460.56-0.63 460.38-2.31L460.38-2.31L460.38-2.31Q460.13-5.38 460.72-6.25L460.72-6.25L460.72-6.25Q461.31-7.13 461.72-7.34L461.72-7.34L461.72-7.34Q462.13-7.56 462.44-7.75L462.44-7.75L462.44-7.75Q463.13-8.06 463.13-8.81L463.13-8.81L463.13-8.81Q463.13-9.38 463.28-10.03L463.28-10.03L463.28-10.03Q463.44-10.69 463.56-11.44L463.56-11.44L463.56-11.44Q463.88-13.25 463.25-14.44L463.25-14.44L463.25-14.44Q462.56-15.81 462.66-16.69L462.66-16.69L462.66-16.69Q462.75-17.56 462.81-18.25L462.81-18.25L463.06-19.75L463.06-19.75Q463.19-21.56 463-22.84L463-22.84L463-22.84Q462.81-24.13 462.72-25.53L462.72-25.53L462.72-25.53Q462.63-26.94 462.66-28.19L462.66-28.19L462.66-28.19Q462.69-29.44 462.69-30.56L462.69-30.56L462.69-30.56Q462.69-33.19 462.16-33.69L462.16-33.69L462.16-33.69Q461.63-34.19 461.19-34.22L461.19-34.22L461.19-34.22Q460.75-34.25 460.31-34.25L460.31-34.25L460.31-34.25Q459.13-34.13 458.81-34.63L458.81-34.63L458.81-34.63Q458.13-35.31 458.13-36.38L458.13-36.38L458.13-36.38Q458.13-37.44 458.53-38L458.53-38L458.53-38Q458.94-38.56 459.06-39.28L459.06-39.28L459.06-39.28Q459.19-40 459.19-40.81L459.19-40.81L459.19-40.81Q459.31-42.69 459.06-43.28L459.06-43.28L459.06-43.28Q458.81-43.88 458.72-44.34L458.72-44.34L458.72-44.34Q458.63-44.81 458.63-45.25L458.63-45.25L458.63-45.25Q458.63-47.06 461.19-47.13L461.19-47.13L461.19-47.13Q462.75-47.19 464.38-47.09L464.38-47.09L464.38-47.09Q466-47 466.94-47.19L466.94-47.19L466.94-47.19Q470.19-47.81 472.16-47.69L472.16-47.69L472.16-47.69Q474.13-47.56 474.69-47.38L474.69-47.38L474.69-47.38Q476.25-46.75 476.38-43.94L476.38-43.94L476.38-43.94Q476.44-42.63 476.44-41.19L476.44-41.19L476.44-41.19Q476.44-39.75 476.56-38.25L476.56-38.25L476.56-38.25Q476.81-35.13 474.19-34.56ZM505.50-11.25L505.50-11.25L505.69-8.25L505.69-8.25Q505.81-5.81 504.44-5.06L504.44-5.06L504.44-5.06Q504.06-2.56 504.06-0.63L504.06-0.63L504.06-0.63Q503.63 0.25 502.63 0.44L502.63 0.44L502.63 0.44Q500.75 0.69 500.19-0.56L500.19-0.56L500.19-0.56Q499.38-2.13 498.88-2.25L498.88-2.25L498.88-2.25Q498.75-2.31 498.47-2.34L498.47-2.34L498.47-2.34Q498.19-2.38 497.81-2.53L497.81-2.53L497.81-2.53Q497.44-2.69 497.53-3.50L497.53-3.50L497.53-3.50Q497.63-4.31 497.50-4.81L497.50-4.81L497.50-4.81Q497.38-5.31 497.19-5.88L497.19-5.88L497.19-5.88Q496.69-7.50 496.69-9L496.69-9L496.69-9Q496.69-10.06 496.72-10.94L496.72-10.94L496.72-10.94Q496.75-11.81 496.75-12.69L496.75-12.69L496.75-12.69Q496.63-15.50 496.03-17.50L496.03-17.50L496.03-17.50Q495.44-19.50 495.25-20.13L495.25-20.13L495.25-20.13Q494.88-21.50 494.88-22.75L494.88-22.75L494.88-22.75Q494.88-23.50 495.06-23.84L495.06-23.84L495.06-23.84Q495.25-24.19 495.44-24.56L495.44-24.56L495.44-24.56Q495.94-25.50 495.84-26.75L495.84-26.75L495.84-26.75Q495.75-28 495.66-29.28L495.66-29.28L495.66-29.28Q495.56-30.56 495.47-32.16L495.47-32.16L495.47-32.16Q495.38-33.75 495.28-35.56L495.28-35.56L495.28-35.56Q495.19-37.38 495.19-39.06L495.19-39.06L495.19-39.06Q495.19-44.56 496.56-45.25L496.56-45.25L496.56-45.25Q496.81-45.38 497.16-45.53L497.16-45.53L497.16-45.53Q497.50-45.69 498-46L498-46L498-46Q498.50-46.31 498.91-46.63L498.91-46.63L498.91-46.63Q499.31-46.94 499.75-47.13L499.75-47.13L499.75-47.13Q500.56-47.50 501.72-47.03L501.72-47.03L501.72-47.03Q502.88-46.56 503.38-46.41L503.38-46.41L503.38-46.41Q503.88-46.25 504.38-46.16L504.38-46.16L504.38-46.16Q504.88-46.06 505.53-46.09L505.53-46.09L505.53-46.09Q506.19-46.13 507.41-46.16L507.41-46.16L507.41-46.16Q508.63-46.19 510.03-46.13L510.03-46.13L510.03-46.13Q511.44-46.06 512.75-45.75L512.75-45.75L512.75-45.75Q517-44.88 519.31-41.06L519.31-41.06L519.31-41.06Q520.31-39.38 520.38-38.06L520.38-38.06L520.38-38.06Q520.44-36.75 520.53-35.53L520.53-35.53L520.53-35.53Q520.63-34.31 521-32.78L521-32.78L521-32.78Q521.38-31.25 521.25-29.88L521.25-29.88L521.25-29.88Q521.13-28.50 520.97-27.97L520.97-27.97L520.97-27.97Q520.81-27.44 520.63-27L520.63-27L520.63-27Q520.31-26.06 520.38-25.06L520.38-25.06L520.38-25.06Q520.50-23.44 520.13-22.53L520.13-22.53L520.13-22.53Q519.75-21.63 519.38-20.69L519.38-20.69L519.38-20.69Q518.31-18.38 517.06-18.06L517.06-18.06L517.06-18.06Q516.38-17.94 515.94-17.81L515.94-17.81L515.94-17.81Q515.50-17.69 515.44-17.25L515.44-17.25L515.44-17.25Q515.31-16.94 515.81-16.53L515.81-16.53L515.81-16.53Q516.31-16.13 516.84-15.31L516.84-15.31L516.84-15.31Q517.38-14.50 517.75-14.25L517.75-14.25L517.75-14.25Q518.13-14 518.44-13.94L518.44-13.94L518.44-13.94Q519.38-13.75 519.63-13.50L519.63-13.50L519.63-13.50Q520.19-12.81 520.47-12.38L520.47-12.38L520.47-12.38Q520.75-11.94 520.63-11.06L520.63-11.06L520.63-11.06Q520.50-10.19 520.63-9.25L520.63-9.25L520.63-9.25Q520.75-8.31 520.88-7.28L520.88-7.28L520.88-7.28Q521-6.25 520.91-5.56L520.91-5.56L520.91-5.56Q520.81-4.88 520.81-4.56L520.81-4.56L521.06-2.94L521.06-2.94Q521.06-1.44 520.19-0.50L520.19-0.50L520.19-0.50Q519.31 0.44 518.81 0.56L518.81 0.56L518.81 0.56Q518.31 0.69 517.88 0.50L517.88 0.50L517.88 0.50Q517.44 0.31 517.13 0.03L517.13 0.03L517.13 0.03Q516.81-0.25 516.63-0.34L516.63-0.34L516.63-0.34Q516.44-0.44 516.16-0.47L516.16-0.47L516.16-0.47Q515.88-0.50 515.56-0.63L515.56-0.63L515.56-0.63Q514.44-0.94 513.63-5L513.63-5L513.63-5Q513.19-7 512.13-7.56L512.13-7.56L512.13-7.56Q510.50-8.38 510.38-9.81L510.38-9.81L510.38-9.81Q510.31-10.50 510.25-11.69L510.25-11.69L510.25-11.69Q510-14.06 508.63-14.63L508.63-14.63L508.63-14.63Q507.94-14.88 507.38-14.88L507.38-14.88L507.38-14.88Q506.81-14.88 506.25-14.25L506.25-14.25L506.25-14.25Q505.50-13.31 505.50-11.25ZM508.63-23.13L508.63-23.13L508.63-23.13Q509.44-23.88 510.22-24.47L510.22-24.47L510.22-24.47Q511-25.06 511.53-26.03L511.53-26.03L511.53-26.03Q512.06-27 512.38-28L512.38-28L512.38-28Q512.88-29.88 512.72-31.47L512.72-31.47L512.72-31.47Q512.56-33.06 512.34-33.59L512.34-33.59L512.34-33.59Q512.13-34.13 511.09-34.13L511.09-34.13L511.09-34.13Q510.06-34.13 509.03-34.63L509.03-34.63L509.03-34.63Q508-35.13 507.88-35.81L507.88-35.81L507.88-35.81Q507.75-37.31 506.94-36.88L506.94-36.88L506.94-36.88Q506.50-36.63 506.31-36.41L506.31-36.41L506.31-36.41Q506.13-36.19 506-35.13L506-35.13L506-35.13Q505.81-32.94 506.03-31.69L506.03-31.69L506.03-31.69Q506.25-30.44 506.31-30.03L506.31-30.03L506.31-30.03Q506.38-29.63 506.41-29.16L506.41-29.16L506.41-29.16Q506.44-28.69 506.47-28.09L506.47-28.09L506.47-28.09Q506.50-27.50 506.59-26.22L506.59-26.22L506.59-26.22Q506.69-24.94 506.63-24.06L506.63-24.06L506.63-24.06Q506.56-23.19 506.81-22.25L506.81-22.25L506.81-22.25Q507.81-22.38 508.63-23.13ZM526-11.75L526-11.75L525.94-14.94L525.94-14.94Q525.94-15.81 526-16.56L526-16.56L526-16.56Q526.06-17.38 525.88-18.56L525.88-18.56L525.88-18.56Q525.56-20.63 525.59-21.59L525.59-21.59L525.59-21.59Q525.63-22.56 525.59-23.16L525.59-23.16L525.59-23.16Q525.56-23.75 525.44-24.25L525.44-24.25L525.44-24.25Q525.25-25 524.53-26.63L524.53-26.63L524.53-26.63Q523.81-28.25 523.81-30.13L523.81-30.13L523.81-30.13Q523.81-32 524.63-33.13L524.63-33.13L524.63-33.13Q525.38-34.25 525.19-35.44L525.19-35.44L525.19-35.44Q525-36.63 524.91-37.97L524.91-37.97L524.91-37.97Q524.81-39.31 524.88-40.72L524.88-40.72L524.88-40.72Q524.94-42.13 525.50-43.44L525.50-43.44L525.50-43.44Q526.88-46.63 531-46.50L531-46.50L531-46.50Q533.56-46.44 535.44-46L535.44-46L535.44-46Q537.31-45.56 538.19-45.63L538.19-45.63L538.19-45.63Q539.06-45.69 540.88-46.25L540.88-46.25L540.88-46.25Q543.50-47.25 545.06-46.13L545.06-46.13L545.06-46.13Q545.50-45.81 545.91-45.66L545.91-45.66L545.91-45.66Q546.31-45.50 546.63-45.19L546.63-45.19L546.63-45.19Q547.69-44 547.25-40L547.25-40L547.25-40Q547.13-38.81 547-37.63L547-37.63L547-37.63Q546.69-34.81 547-33.44L547-33.44L547-33.44Q547.31-32.06 547.34-31.03L547.34-31.03L547.34-31.03Q547.38-30 547.25-29.19L547.25-29.19L547.25-29.19Q546.88-27.38 545.81-27.38L545.81-27.38L545.81-27.38Q544.88-27.44 544.47-27.97L544.47-27.97L544.47-27.97Q544.06-28.50 543.81-29.16L543.81-29.16L543.81-29.16Q543.56-29.81 543.28-30.34L543.28-30.34L543.28-30.34Q543-30.88 542.06-30.88L542.06-30.88L542.06-30.88Q539.31-30.88 538.41-31.47L538.41-31.47L538.41-31.47Q537.50-32.06 536.81-32.16L536.81-32.16L536.81-32.16Q536.13-32.25 535.50-32L535.50-32L535.50-32Q534.19-31.44 533.97-29.94L533.97-29.94L533.97-29.94Q533.75-28.44 533.69-27.31L533.69-27.31L533.69-27.31Q533.63-26.19 533.69-25.25L533.69-25.25L533.69-25.25Q533.81-23.06 534.53-22.78L534.53-22.78L534.53-22.78Q535.25-22.50 535.75-22.72L535.75-22.72L535.75-22.72Q536.25-22.94 536.75-23.25L536.75-23.25L536.75-23.25Q538.25-24.25 539.84-24.22L539.84-24.22L539.84-24.22Q541.44-24.19 542.22-22.94L542.22-22.94L542.22-22.94Q543-21.69 542.88-20.53L542.88-20.53L542.88-20.53Q542.75-19.38 542.66-18.25L542.66-18.25L542.66-18.25Q542.56-17.13 542.38-16.13L542.38-16.13L542.38-16.13Q541.50-12.25 538.75-14.63L538.75-14.63L538.75-14.63Q535.19-14.88 534.31-13.75L534.31-13.75L534.31-13.75Q534.13-13.44 533.94-12.44L533.94-12.44L533.94-12.44Q533.75-11.44 533.88-10.31L533.88-10.31L533.88-10.31Q534.19-7.38 536.69-7.19L536.69-7.19L536.69-7.19Q538.31-7.06 539.66-7.63L539.66-7.63L539.66-7.63Q541-8.19 541.44-8.88L541.44-8.88L541.44-8.88Q541.81-9.63 542.38-9.72L542.38-9.72L542.38-9.72Q542.94-9.81 543.38-9.91L543.38-9.91L543.38-9.91Q543.81-10 544.25-10L544.25-10L544.25-10Q544.69-10 545.13-9.88L545.13-9.88L545.13-9.88Q546.25-9.50 546.47-8.13L546.47-8.13L546.47-8.13Q546.69-6.75 546.19-5.63L546.19-5.63L546.19-5.63Q545.69-4.50 545.53-3.59L545.53-3.59L545.53-3.59Q545.38-2.69 545.25-2.25L545.25-2.25L545.25-2.25Q545.13-1.81 544.53-1.16L544.53-1.16L544.53-1.16Q543.94-0.50 543.59-0.06L543.59-0.06L543.59-0.06Q543.25 0.38 542.50-0.25L542.50-0.25L542.50-0.25Q541.13-1.31 539.19 1L539.19 1L539.19 1Q538.69 1.69 538.13 2L538.13 2L538.13 2Q537.56 2.31 536.38 2.25L536.38 2.25L536.38 2.25Q535.19 2.19 534.50 1.63L534.50 1.63L534.50 1.63Q533.81 1.06 533.25 0.50L533.25 0.50L533.25 0.50Q532.31-0.69 530-0.38L530-0.38L530-0.38Q528.63-0.19 527.75-1.56L527.75-1.56L527.75-1.56Q527.56-1.75 527.47-2.25L527.47-2.25L527.47-2.25Q527.38-2.75 527.25-3.38L527.25-3.38L527.25-3.38Q526.81-5 526.47-5.47L526.47-5.47L526.47-5.47Q526.13-5.94 526.09-6.69L526.09-6.69L526.09-6.69Q526.06-7.44 525.94-8.28L525.94-8.28L525.94-8.28Q525.81-9.13 525.75-9.53L525.75-9.53L525.75-9.53Q525.69-9.94 525.84-10.50L525.84-10.50L525.84-10.50Q526-11.06 526-11.75ZM554.75 0.75L554.75 0.75L554.75 0.75Q554.13 0.94 553.34 0.66L553.34 0.66L553.34 0.66Q552.56 0.38 552.25-0.41L552.25-0.41L552.25-0.41Q551.94-1.19 551.84-2.22L551.84-2.22L551.84-2.22Q551.75-3.25 551.81-4.44L551.81-4.44L551.81-4.44Q551.88-5.63 551.88-6.75L551.88-6.75L551.88-6.75Q551.88-9.25 551.06-9.94L551.06-9.94L551.06-9.94Q549.38-11.19 549.69-16.31L549.69-16.31L549.69-16.31Q550-19.25 550.38-21L550.38-21L550.38-21Q551-23.88 550.97-25.88L550.97-25.88L550.97-25.88Q550.94-27.88 551.09-29L551.09-29L551.09-29Q551.25-30.13 551.47-30.88L551.47-30.88L551.47-30.88Q551.69-31.63 552-32.44L552-32.44L552-32.44Q552.31-33.25 552.56-35.13L552.56-35.13L552.56-35.13Q553.19-39.81 553.69-40.94L553.69-40.94L553.69-40.94Q554.38-42.50 555.34-44.16L555.34-44.16L555.34-44.16Q556.31-45.81 556.94-46.38L556.94-46.38L556.94-46.38Q558.38-47.44 561.06-46.56L561.06-46.56L561.06-46.56Q563.06-45.88 564.78-46.13L564.78-46.13L564.78-46.13Q566.50-46.38 567.41-46.34L567.41-46.34L567.41-46.34Q568.31-46.31 569.44-45.66L569.44-45.66L569.44-45.66Q570.56-45 571.19-44.09L571.19-44.09L571.19-44.09Q571.81-43.19 572.06-42.13L572.06-42.13L572.06-42.13Q572.50-40.31 572.13-37.53L572.13-37.53L572.13-37.53Q571.75-34.75 571.84-33.03L571.84-33.03L571.84-33.03Q571.94-31.31 572.59-29.78L572.59-29.78L572.59-29.78Q573.25-28.25 573.47-27.34L573.47-27.34L573.47-27.34Q573.69-26.44 573.84-25.53L573.84-25.53L573.84-25.53Q574-24.63 574.09-23.59L574.09-23.59L574.09-23.59Q574.19-22.56 574.47-21.25L574.47-21.25L574.47-21.25Q574.75-19.94 574.78-19.16L574.78-19.16L574.78-19.16Q574.81-18.38 574.75-17.88L574.75-17.88L574.75-17.88Q574.69-17.38 574.59-16.97L574.59-16.97L574.59-16.97Q574.50-16.56 574.66-15.72L574.66-15.72L574.66-15.72Q574.81-14.88 574.66-13.88L574.66-13.88L574.66-13.88Q574.50-12.88 574.31-11.94L574.31-11.94L574.31-11.94Q573.63-9.06 573.75-7.88L573.75-7.88L573.75-7.88Q574-5.75 573.75-4.84L573.75-4.84L573.75-4.84Q573.50-3.94 573.28-3.38L573.28-3.38L573.28-3.38Q573.06-2.81 572.78-1.81L572.78-1.81L572.78-1.81Q572.50-0.81 571.63 0L571.63 0L571.63 0Q570.75 0.81 569.97 0.50L569.97 0.50L569.97 0.50Q569.19 0.19 568.97-0.41L568.97-0.41L568.97-0.41Q568.75-1 568.59-1.63L568.59-1.63L568.59-1.63Q568.44-2.25 568.22-2.75L568.22-2.75L568.22-2.75Q568-3.25 567.44-3.31L567.44-3.31L567.44-3.31Q566.44-3.44 566.38-4.47L566.38-4.47L566.38-4.47Q566.31-5.50 566.41-6.28L566.41-6.28L566.41-6.28Q566.50-7.06 566.31-7.88L566.31-7.88L566.31-7.88Q566.13-8.69 565.69-9.44L565.69-9.44L565.69-9.44Q564.56-11.38 563.06-11.56L563.06-11.56L563.06-11.56Q560.81-11.88 559.94-9.38L559.94-9.38L559.94-9.38Q559.75-8.75 559.66-7.72L559.66-7.72L559.66-7.72Q559.56-6.69 559.16-5.88L559.16-5.88L559.16-5.88Q558.75-5.06 558.28-4.50L558.28-4.50L558.28-4.50Q557.81-3.94 557.41-3.47L557.41-3.47L557.41-3.47Q557-3 556.88-2.31L556.88-2.31L556.88-2.31Q556.38 0.38 554.75 0.75ZM560.31-25.44L560.31-25.44L560.31-25.44Q559.06-22.06 560-20.06L560-20.06L560-20.06Q560.63-18.94 561.63-18.88L561.63-18.88L561.63-18.88Q563.44-18.69 563.78-19.16L563.78-19.16L563.78-19.16Q564.13-19.63 564.59-20.16L564.59-20.16L564.59-20.16Q565.06-20.69 564.94-21.78L564.94-21.78L564.94-21.78Q564.81-22.88 564.75-23.72L564.75-23.72L564.75-23.72Q564.69-24.56 564.16-25.63L564.16-25.63L564.16-25.63Q563.63-26.69 563.44-27.91L563.44-27.91L563.44-27.91Q563.25-29.13 563.19-30.25L563.19-30.25L563.19-30.25Q562.94-32.75 562.06-32.75L562.06-32.75L562.06-32.75Q561.44-32.75 561.28-32.09L561.28-32.09L561.28-32.09Q561.13-31.44 561.06-30.38L561.06-30.38L561.06-30.38Q561-27.13 560.31-25.44ZM602.66-37.59L602.66-37.59L602.66-37.59Q602.81-36.94 602.78-36.09L602.78-36.09L602.78-36.09Q602.75-35.25 602.31-33.72L602.31-33.72L602.31-33.72Q601.88-32.19 602.03-30.97L602.03-30.97L602.03-30.97Q602.19-29.75 602.38-29.34L602.38-29.34L602.38-29.34Q602.56-28.94 602.66-28.38L602.66-28.38L602.66-28.38Q602.75-27.81 602.63-27.19L602.63-27.19L602.63-27.19Q602.31-25.75 600.81-24.94L600.81-24.94L600.81-24.94Q599.38-24.31 598.34-23.59L598.34-23.59L598.34-23.59Q597.31-22.88 596.19-22.50L596.19-22.50L596.19-22.50Q595.94-21.75 595.72-21.13L595.72-21.13L595.72-21.13Q595.50-20.50 595-20.16L595-20.16L595-20.16Q594.50-19.81 593.88-20.03L593.88-20.03L593.88-20.03Q593.25-20.25 593.38-21.34L593.38-21.34L593.38-21.34Q593.50-22.44 593.03-22.84L593.03-22.84L593.03-22.84Q592.56-23.25 592.28-23.50L592.28-23.50L592.28-23.50Q592-23.75 591.75-24L591.75-24L591.75-24Q591.50-24.25 591.38-24.63L591.38-24.63L591.38-24.63Q591.06-25.75 591.53-26.63L591.53-26.63L591.53-26.63Q592-27.50 592.03-27.94L592.03-27.94L592.03-27.94Q592.06-28.38 592-28.88L592-28.88L592-28.88Q591.81-30.13 591.97-31L591.97-31L591.97-31Q592.13-31.88 591.53-32.50L591.53-32.50L591.53-32.50Q590.94-33.13 590.22-33.06L590.22-33.06L590.22-33.06Q589.50-33 589.03-31.13L589.03-31.13L589.03-31.13Q588.56-29.25 588.31-26.47L588.31-26.47L588.31-26.47Q588.06-23.69 588.03-20.44L588.03-20.44L588.03-20.44Q588-17.19 588.31-14.38L588.31-14.38L588.31-14.38Q588.94-7.94 590.56-7.81L590.56-7.81L590.56-7.81Q592.19-7.69 593.06-8.28L593.06-8.28L593.06-8.28Q593.94-8.88 594.44-9.63L594.44-9.63L594.44-9.63Q594.94-10.38 595.22-11.03L595.22-11.03L595.22-11.03Q595.50-11.69 595.88-11.81L595.88-11.81L595.88-11.81Q598.50-12.69 599.56-10.75L599.56-10.75L599.56-10.75Q600-9.94 600-8.44L600-8.44L600-8.44Q600-6.94 599.78-6.22L599.78-6.22L599.78-6.22Q599.56-5.50 599.28-5.03L599.28-5.03L599.28-5.03Q599-4.56 598.75-4.19L598.75-4.19L598.75-4.19Q598.50-3.81 598.38-3.22L598.38-3.22L598.38-3.22Q598.25-2.63 597.81-2.13L597.81-2.13L597.81-2.13Q597.38-1.63 596.75-1.25L596.75-1.25L596.75-1.25Q595.44-0.56 594.56-0.56L594.56-0.56L594.56-0.56Q591.13-0.56 589.44 0.69L589.44 0.69L589.44 0.69Q588.38 1.56 587.31 1.50L587.31 1.50L587.31 1.50Q585.75 1.44 585.19 0.88L585.19 0.88L585.19 0.88Q584.63 0.31 583.69-0.25L583.69-0.25L583.69-0.25Q582.75-0.81 582.59-1.66L582.59-1.66L582.59-1.66Q582.44-2.50 582-3L582-3L582-3Q581.56-3.50 581.06-4.25L581.06-4.25L581.06-4.25Q579.75-5.94 579.75-8.25L579.75-8.25L579.75-8.25Q579.75-9.69 579.81-10.63L579.81-10.63L579.81-10.63Q579.88-11.56 579.81-12.25L579.81-12.25L579.81-12.25Q579.81-13.56 578.69-14.97L578.69-14.97L578.69-14.97Q577.56-16.38 577.38-17.41L577.38-17.41L577.38-17.41Q577.19-18.44 577.03-19.34L577.03-19.34L577.03-19.34Q576.88-20.25 577-21.13L577-21.13L577-21.13Q577.13-22 577.25-22.94L577.25-22.94L577.25-22.94Q577.38-23.88 577.72-24.56L577.72-24.56L577.72-24.56Q578.06-25.25 577.97-25.94L577.97-25.94L577.97-25.94Q577.88-26.63 578.09-27.06L578.09-27.06L578.09-27.06Q578.31-27.50 578.50-28L578.50-28L578.50-28Q579-29.38 578.38-30.72L578.38-30.72L578.38-30.72Q577.75-32.06 577.72-32.88L577.72-32.88L577.72-32.88Q577.69-33.69 577.88-34.34L577.88-34.34L577.88-34.34Q578.06-35 578.28-35.59L578.28-35.59L578.28-35.59Q578.50-36.19 578.50-37.13L578.50-37.13L578.50-37.13Q578.50-38.06 578.84-39.31L578.84-39.31L578.84-39.31Q579.19-40.56 580.59-40.91L580.59-40.91L580.59-40.91Q582-41.25 582.19-41.88L582.19-41.88L582.19-41.88Q582.38-42.50 582.63-43.19L582.63-43.19L582.63-43.19Q582.81-43.88 583.81-44.72L583.81-44.72L583.81-44.72Q584.81-45.56 586.72-45.84L586.72-45.84L586.72-45.84Q588.63-46.13 589.47-45.88L589.47-45.88L589.47-45.88Q590.31-45.63 591-44.84L591-44.84L591-44.84Q591.69-44.06 592.31-43.97L592.31-43.97L592.31-43.97Q592.94-43.88 593.63-44L593.63-44L593.63-44Q596.88-44.44 600.13-42.63L600.13-42.63L600.13-42.63Q601.25-42 601.63-40.69L601.63-40.69L601.63-40.69Q602-39.38 602.25-38.81L602.25-38.81L602.25-38.81Q602.50-38.25 602.66-37.59ZM607.41-45.88L607.41-45.88L607.41-45.88Q608.81-45.75 609.91-45.78L609.91-45.78L609.91-45.78Q611-45.81 613.19-45.75L613.19-45.75L613.19-45.75Q616.81-45.56 618.31-46.25L618.31-46.25L618.31-46.25Q621.38-47.81 623.25-46.63L623.25-46.63L623.25-46.63Q624.13-46.13 624.94-46L624.94-46L624.94-46Q625.75-45.88 627.25-46.75L627.25-46.75L627.25-46.75Q628.88-47.44 629.94-47.06L629.94-47.06L629.94-47.06Q631-46.69 631.50-46.13L631.50-46.13L631.50-46.13Q632-45.56 632.16-44.16L632.16-44.16L632.16-44.16Q632.31-42.75 632.22-41.38L632.22-41.38L632.22-41.38Q632.13-40 631.94-38.81L631.94-38.81L631.94-38.81Q631.56-35.63 631.66-34.63L631.66-34.63L631.66-34.63Q631.75-33.63 631.91-32.56L631.91-32.56L631.91-32.56Q632.06-31.50 632-30.50L632-30.50L632-30.50Q631.88-28.06 630-27.75L630-27.75L630-27.75Q628.63-27.56 628-28.41L628-28.41L628-28.41Q627.38-29.25 626.97-30.28L626.97-30.28L626.97-30.28Q626.56-31.31 626.16-32.13L626.16-32.13L626.16-32.13Q625.75-32.94 625-32.72L625-32.72L625-32.72Q624.25-32.50 624.06-31.09L624.06-31.09L624.06-31.09Q623.88-29.69 623.94-27.78L623.94-27.78L623.94-27.78Q624-25.88 624.19-23.84L624.19-23.84L624.19-23.84Q624.38-21.81 624.44-20.41L624.44-20.41L624.44-20.41Q624.50-19 624.59-17.56L624.59-17.56L624.59-17.56Q624.69-16.13 624.69-14.88L624.69-14.88L624.69-14.88Q624.69-12.19 623.94-11.19L623.94-11.19L623.94-11.19Q623.56-10.69 623.56-10L623.56-10L623.56-10Q623.56-9.31 623.72-8.56L623.72-8.56L623.72-8.56Q623.88-7.81 624.06-7.06L624.06-7.06L624.06-7.06Q624.25-6.31 624.25-5.25L624.25-5.25L624.25-5.25Q624.25-2.75 622-1.75L622-1.75L622-1.75Q621.19-1.38 620.50-0.50L620.50-0.50L620.50-0.50Q619.81 0.38 619.47 0.66L619.47 0.66L619.47 0.66Q619.13 0.94 618.66 0.84L618.66 0.84L618.66 0.84Q618.19 0.75 617.97 0.41L617.97 0.41L617.97 0.41Q617.75 0.06 617.56-0.31L617.56-0.31L617.56-0.31Q617.19-1.31 616.50-1.63L616.50-1.63L616.50-1.63Q615.69-1.81 615.53-3L615.53-3L615.53-3Q615.38-4.19 615.34-5.09L615.34-5.09L615.34-5.09Q615.31-6 615.19-7.31L615.19-7.31L615.19-7.31Q615.06-8.63 614.38-9.44L614.38-9.44L614.38-9.44Q613.69-10.25 613.25-10.47L613.25-10.47L613.25-10.47Q612.81-10.69 612.69-11.53L612.69-11.53L612.69-11.53Q612.56-12.38 612.72-13.25L612.72-13.25L612.72-13.25Q612.88-14.13 613.13-15.19L613.13-15.19L613.13-15.19Q613.88-18.25 613.94-20.94L613.94-20.94L613.94-20.94Q614.13-25.94 613.94-27.56L613.94-27.56L613.94-27.56Q613.69-30.81 612.19-30.81L612.19-30.81L612.19-30.81Q611.44-30.75 611.13-30.16L611.13-30.16L611.13-30.16Q610.81-29.56 610.44-28.75L610.44-28.75L610.44-28.75Q609.56-26.69 607.25-27.63L607.25-27.63L607.25-27.63Q606.44-28 606.22-28.81L606.22-28.81L606.22-28.81Q606-29.63 605.97-30.72L605.97-30.72L605.97-30.72Q605.94-31.81 605.91-33.03L605.91-33.03L605.91-33.03Q605.88-34.25 605.47-35.34L605.47-35.34L605.47-35.34Q605.06-36.44 604.69-37.44L604.69-37.44L604.69-37.44Q604.31-38.44 604.38-39.44L604.38-39.44L604.38-39.44Q604.44-40.44 604.84-41.38L604.84-41.38L604.84-41.38Q605.25-42.31 605.09-43.25L605.09-43.25L605.09-43.25Q604.94-44.19 605.47-45.09L605.47-45.09L605.47-45.09Q606-46 607.41-45.88ZM673.38 0.38L673.38 0.38L673.38 0.38Q673 1.06 672.38 1.41L672.38 1.41L672.38 1.41Q671.75 1.75 671.13 1.28L671.13 1.28L671.13 1.28Q670.50 0.81 670.22 0.88L670.22 0.88L670.22 0.88Q669.94 0.94 669.69 1L669.69 1L669.69 1Q669.13 1.06 668.56 0.19L668.56 0.19L668.56 0.19Q668-0.69 667.94-1.22L667.94-1.22L667.94-1.22Q667.88-1.75 667.94-2.25L667.94-2.25L667.94-2.25Q668.19-3.38 667.59-4.25L667.59-4.25L667.59-4.25Q667-5.13 666.78-5.56L666.78-5.56L666.78-5.56Q666.56-6 666.56-6.84L666.56-6.84L666.56-6.84Q666.56-7.69 666.47-7.91L666.47-7.91L666.47-7.91Q666.38-8.13 666.31-8.25L666.31-8.25L666.31-8.25Q666-8.81 666.09-10L666.09-10L666.09-10Q666.19-11.19 665.75-11.66L665.75-11.66L665.75-11.66Q665.31-12.13 664.59-12.38L664.59-12.38L664.59-12.38Q663.88-12.63 663.47-12.22L663.47-12.22L663.47-12.22Q663.06-11.81 662.72-11.25L662.72-11.25L662.72-11.25Q662.38-10.69 661.88-10.28L661.88-10.28L661.88-10.28Q661.38-9.88 660.59-10.06L660.59-10.06L660.59-10.06Q659.81-10.25 658.88-9.69L658.88-9.69L658.88-9.69Q657.94-9.13 657.75-8.34L657.75-8.34L657.75-8.34Q657.56-7.56 657.31-6.75L657.31-6.75L657.31-6.75Q657.06-5.94 657.16-5.25L657.16-5.25L657.16-5.25Q657.25-4.56 657.16-3.91L657.16-3.91L657.16-3.91Q657.06-3.25 656.81-2.63L656.81-2.63L656.81-2.63Q656.31-1.06 655.63-0.94L655.63-0.94L655.63-0.94Q655.06-0.88 654.44-0.94L654.44-0.94L654.44-0.94Q653.75 0.31 652.81 0.56L652.81 0.56L652.81 0.56Q650.25 1.13 649.75-0.25L649.75-0.25L649.75-0.25Q649.44-1.06 649.38-2.38L649.38-2.38L649.38-2.38Q649.25-5 648.81-5.94L648.81-5.94L648.81-5.94Q648.38-6.88 648.59-8.19L648.59-8.19L648.59-8.19Q648.81-9.50 648.75-10.81L648.75-10.81L648.75-10.81Q648.69-12.13 648.75-12.81L648.75-12.81L648.75-12.81Q648.81-13.50 648.91-14.06L648.91-14.06L648.91-14.06Q649-14.63 649.13-15.16L649.13-15.16L649.13-15.16Q649.25-15.69 649.28-16.41L649.28-16.41L649.28-16.41Q649.31-17.13 649.50-18.06L649.50-18.06L649.50-18.06Q649.69-19 649.88-20L649.88-20L649.88-20Q650.38-22.50 650.25-23.75L650.25-23.75L650.25-23.75Q650.13-25 650.47-25.88L650.47-25.88L650.47-25.88Q650.81-26.75 651.25-27.44L651.25-27.44L651.25-27.44Q652.38-29.25 652.31-30.41L652.31-30.41L652.31-30.41Q652.25-31.56 652.22-32.22L652.22-32.22L652.22-32.22Q652.19-32.88 652.25-33.56L652.25-33.56L652.25-33.56Q652.56-36.94 655.44-44.13L655.44-44.13L655.44-44.13Q655.63-44.81 656.63-45.19L656.63-45.19L656.63-45.19Q657.63-45.56 658.66-45.28L658.66-45.28L658.66-45.28Q659.69-45 660.34-45.03L660.34-45.03L660.34-45.03Q661-45.06 661.47-45.53L661.47-45.53L661.47-45.53Q661.94-46 662.47-46.44L662.47-46.44L662.47-46.44Q663-46.88 663.75-47.16L663.75-47.16L663.75-47.16Q664.50-47.44 665.44-47.44L665.44-47.44L665.44-47.44Q666.38-47.44 667.44-46.88L667.44-46.88L667.44-46.88Q669.19-45.94 669.75-45.13L669.75-45.13L669.75-45.13Q670.31-44.31 670.50-43.81L670.50-43.81L670.50-43.81Q670.69-43.31 671.13-42.44L671.13-42.44L671.13-42.44Q671.56-41.56 671.53-40.88L671.53-40.88L671.53-40.88Q671.50-40.19 671.75-39.25L671.75-39.25L671.75-39.25Q672-38.31 671.75-37.06L671.75-37.06L671.75-37.06Q671.50-35.81 671.75-34.59L671.75-34.59L671.75-34.59Q672-33.38 672-32.94L672-32.94L672-32.94Q672-32.50 672.06-32.13L672.06-32.13L672.06-32.13Q672.13-31.06 672.50-30.25L672.50-30.25L672.50-30.25Q672.88-29.38 672.72-28.09L672.72-28.09L672.72-28.09Q672.56-26.81 672.66-25.97L672.66-25.97L672.66-25.97Q672.75-25.13 673.31-24.25L673.31-24.25L673.31-24.25Q674.38-22.56 674.06-20.50L674.06-20.50L674.06-20.50Q674-19.94 674.09-19.28L674.09-19.28L674.09-19.28Q674.19-18.63 674.19-18.09L674.19-18.09L674.19-18.09Q674.19-17.56 674.06-16.75L674.06-16.75L674.06-16.75Q673.88-15.56 674.13-13.88L674.13-13.88L674.13-13.88Q674.50-10.75 674.50-9.69L674.50-9.69L674.50-9.69Q674.50-8.63 674.56-7.91L674.56-7.91L674.56-7.91Q674.63-7.19 674.69-6.38L674.69-6.38L674.69-6.38Q674.88-4.25 674.72-2.09L674.72-2.09L674.72-2.09Q674.56 0.06 673.38 0.38ZM663.81-24.81L663.81-24.81L663.81-24.81Q663.94-26 663.72-27.75L663.72-27.75L663.72-27.75Q663.50-29.50 663.50-30.34L663.50-30.34L663.50-30.34Q663.50-31.19 663.38-31.81L663.38-31.81L663.38-31.81Q663.19-32.81 662.31-32.06L662.31-32.06L662.31-32.06Q661.31-33.06 660.69-32.13L660.69-32.13L660.69-32.13Q660.25-31.44 660.25-29.88L660.25-29.88L660.25-29.88Q660.13-28.81 659.78-27.94L659.78-27.94L659.78-27.94Q659.44-27.06 659.31-26L659.31-26L659.31-26Q659.13-24.75 658.66-22.94L658.66-22.94L658.66-22.94Q658.19-21.13 658.78-20.25L658.78-20.25L658.78-20.25Q659.38-19.38 660.25-19.63L660.25-19.63L660.25-19.63Q661.13-19.88 661.56-19.91L661.56-19.91L661.56-19.91Q662-19.94 662.31-20L662.31-20L662.31-20Q663.06-20.06 663.47-20.59L663.47-20.59L663.47-20.59Q663.88-21.13 663.91-21.53L663.91-21.53L663.91-21.53Q663.94-21.94 663.88-22.38L663.88-22.38L663.88-22.38Q663.69-23.63 663.81-24.81ZM684.81 0.94L684.81 0.94L684.81 0.94Q683.94 0.88 683.03-0.94L683.03-0.94L683.03-0.94Q682.13-2.75 681.78-5.56L681.78-5.56L681.78-5.56Q681.44-8.38 681.31-9.38L681.31-9.38L681.31-9.38Q681.19-10.38 681.06-10.88L681.06-10.88L681.06-10.88Q680.88-11.81 680.34-12.53L680.34-12.53L680.34-12.53Q679.81-13.25 679.69-13.63L679.69-13.63L679.69-13.63Q679.56-14.19 679.63-16.44L679.63-16.44L679.63-16.44Q679.75-21.25 679.19-22.81L679.19-22.81L679.19-22.81Q678.94-23.50 679-23.94L679-23.94L679-23.94Q679.06-24.38 679.03-24.88L679.03-24.88L679.03-24.88Q679-25.38 678.69-25.94L678.69-25.94L678.69-25.94Q678.38-26.50 678.06-27.25L678.06-27.25L678.06-27.25Q677.06-29.25 677.06-30L677.06-30L677.06-30Q677.06-30.94 677.69-32.13L677.69-32.13L677.69-32.13Q679.06-34.44 679.28-35.34L679.28-35.34L679.28-35.34Q679.50-36.25 679.47-37.66L679.47-37.66L679.47-37.66Q679.44-39.06 679.44-40.50L679.44-40.50L679.44-40.50Q679.31-44.19 680.06-45.13L680.06-45.13L680.06-45.13Q680.56-45.63 681.25-45.81L681.25-45.81L681.25-45.81Q681.94-46 683-46.38L683-46.38L683-46.38Q685.13-47.13 686.22-47.13L686.22-47.13L686.22-47.13Q687.31-47.13 687.97-46.53L687.97-46.53L687.97-46.53Q688.63-45.94 689.50-45.84L689.50-45.84L689.50-45.84Q690.38-45.75 690.72-45.84L690.72-45.84L690.72-45.84Q691.06-45.94 691.31-46L691.31-46L691.31-46Q692.06-46.31 692.56-46.31L692.56-46.31L692.56-46.31Q693.38-46.31 693.75-45.69L693.75-45.69L693.75-45.69Q694.13-45.06 694.44-44.66L694.44-44.66L694.44-44.66Q694.75-44.25 695.47-44.44L695.47-44.44L695.47-44.44Q696.19-44.63 696.56-44.63L696.56-44.63L696.56-44.63Q696.94-44.63 697.19-44.63L697.19-44.63L697.19-44.63Q698.13-44.50 698.81-44.69L698.81-44.69L698.81-44.69Q700.19-45.13 700.94-44.25L700.94-44.25L700.94-44.25Q701.13-43.81 701.81-43.63L701.81-43.63L701.81-43.63Q702.50-43.44 703-43.13L703-43.13L703-43.13Q704.19-42.50 704.63-40.94L704.63-40.94L704.63-40.94Q705.50-38.06 704.88-35L704.88-35L704.88-35Q704.63-33.94 704.47-33.31L704.47-33.31L704.47-33.31Q704.31-32.69 704.22-32.22L704.22-32.22L704.22-32.22Q704.13-31.75 704.09-31.31L704.09-31.31L704.09-31.31Q704.06-30.88 704.03-30.25L704.03-30.25L704.03-30.25Q704-29.63 704-28.88L704-28.88L704-27.19L704-27.19Q704-25.25 704.13-24.13L704.13-24.13L704.13-24.13Q704.50-21 701.31-19.63L701.31-19.63L701.31-19.63Q700.25-19.19 699.81-18.81L699.81-18.81L699.81-18.81Q699.38-18.44 699.06-17.69L699.06-17.69L699.06-17.69Q698.75-16.94 697.91-15.81L697.91-15.81L697.91-15.81Q697.06-14.69 695.34-14.03L695.34-14.03L695.34-14.03Q693.63-13.38 692.38-12.94L692.38-12.94L692.38-12.94Q691.13-12.50 690.81-11.88L690.81-11.88L690.81-11.88Q690.38-11.06 690.59-8.03L690.59-8.03L690.59-8.03Q690.81-5 690.75-4.19L690.75-4.19L690.75-4.19Q690.69-3.38 690.56-2.84L690.56-2.84L690.56-2.84Q690.44-2.31 689.94-2L689.94-2L689.94-2Q689.44-1.69 689.06-1.69L689.06-1.69L689.06-1.69Q688.69-1.69 688.28-1.31L688.28-1.31L688.28-1.31Q687.88-0.94 687.56-0.56L687.56-0.56L687.56-0.56Q687.25-0.19 686.88 0.13L686.88 0.13L686.88 0.13Q686 0.94 684.81 0.94ZM689.06-34.06L689.06-34.06L689.06-34.06Q688.69-33.69 688.31-31.88L688.31-31.88L688.31-31.88Q687.94-30.06 687.94-29L687.94-29L687.94-29Q687.94-27.94 688.38-27.09L688.38-27.09L688.38-27.09Q688.81-26.25 688.78-25.72L688.78-25.72L688.78-25.72Q688.75-25.19 688.66-24.59L688.66-24.59L688.66-24.59Q688.56-24 688.56-23.38L688.56-23.38L688.56-23.38Q688.44-21.88 688.81-21.50L688.81-21.50L688.81-21.50Q689.19-21.13 689.66-21.22L689.66-21.22L689.66-21.22Q690.13-21.31 690.63-21.56L690.63-21.56L690.63-21.56Q691.13-21.81 691.53-22.09L691.53-22.09L691.53-22.09Q691.94-22.38 692.34-22.50L692.34-22.50L692.34-22.50Q692.75-22.63 692.94-23.06L692.94-23.06L692.94-23.06Q693.13-23.50 693.50-23.81L693.50-23.81L693.50-23.81Q693.94-24.13 694.09-24.66L694.09-24.66L694.09-24.66Q694.25-25.19 694.41-25.78L694.41-25.78L694.41-25.78Q694.56-26.38 694.38-26.91L694.38-26.91L694.38-26.91Q694.19-27.44 693.69-28.50L693.69-28.50L693.69-28.50Q693.31-29.56 693.44-30.19L693.44-30.19L693.44-30.19Q693.94-32.81 692.81-33.81L692.81-33.81L692.81-33.81Q691.38-34.69 690.41-34.56L690.41-34.56L690.41-34.56Q689.44-34.44 689.06-34.06ZM714.44 0.94L714.44 0.94L714.44 0.94Q713.56 0.88 712.66-0.94L712.66-0.94L712.66-0.94Q711.75-2.75 711.41-5.56L711.41-5.56L711.41-5.56Q711.06-8.38 710.94-9.38L710.94-9.38L710.94-9.38Q710.81-10.38 710.69-10.88L710.69-10.88L710.69-10.88Q710.50-11.81 709.97-12.53L709.97-12.53L709.97-12.53Q709.44-13.25 709.31-13.63L709.31-13.63L709.31-13.63Q709.19-14.19 709.25-16.44L709.25-16.44L709.25-16.44Q709.38-21.25 708.81-22.81L708.81-22.81L708.81-22.81Q708.56-23.50 708.63-23.94L708.63-23.94L708.63-23.94Q708.69-24.38 708.66-24.88L708.66-24.88L708.66-24.88Q708.63-25.38 708.31-25.94L708.31-25.94L708.31-25.94Q708-26.50 707.69-27.25L707.69-27.25L707.69-27.25Q706.69-29.25 706.69-30L706.69-30L706.69-30Q706.69-30.94 707.31-32.13L707.31-32.13L707.31-32.13Q708.69-34.44 708.91-35.34L708.91-35.34L708.91-35.34Q709.13-36.25 709.09-37.66L709.09-37.66L709.09-37.66Q709.06-39.06 709.06-40.50L709.06-40.50L709.06-40.50Q708.94-44.19 709.69-45.13L709.69-45.13L709.69-45.13Q710.19-45.63 710.88-45.81L710.88-45.81L710.88-45.81Q711.56-46 712.63-46.38L712.63-46.38L712.63-46.38Q714.75-47.13 715.84-47.13L715.84-47.13L715.84-47.13Q716.94-47.13 717.59-46.53L717.59-46.53L717.59-46.53Q718.25-45.94 719.13-45.84L719.13-45.84L719.13-45.84Q720-45.75 720.34-45.84L720.34-45.84L720.34-45.84Q720.69-45.94 720.94-46L720.94-46L720.94-46Q721.69-46.31 722.19-46.31L722.19-46.31L722.19-46.31Q723-46.31 723.38-45.69L723.38-45.69L723.38-45.69Q723.75-45.06 724.06-44.66L724.06-44.66L724.06-44.66Q724.38-44.25 725.09-44.44L725.09-44.44L725.09-44.44Q725.81-44.63 726.19-44.63L726.19-44.63L726.19-44.63Q726.56-44.63 726.81-44.63L726.81-44.63L726.81-44.63Q727.75-44.50 728.44-44.69L728.44-44.69L728.44-44.69Q729.81-45.13 730.56-44.25L730.56-44.25L730.56-44.25Q730.75-43.81 731.44-43.63L731.44-43.63L731.44-43.63Q732.13-43.44 732.63-43.13L732.63-43.13L732.63-43.13Q733.81-42.50 734.25-40.94L734.25-40.94L734.25-40.94Q735.13-38.06 734.50-35L734.50-35L734.50-35Q734.25-33.94 734.09-33.31L734.09-33.31L734.09-33.31Q733.94-32.69 733.84-32.22L733.84-32.22L733.84-32.22Q733.75-31.75 733.72-31.31L733.72-31.31L733.72-31.31Q733.69-30.88 733.66-30.25L733.66-30.25L733.66-30.25Q733.63-29.63 733.63-28.88L733.63-28.88L733.63-27.19L733.63-27.19Q733.63-25.25 733.75-24.13L733.75-24.13L733.75-24.13Q734.13-21 730.94-19.63L730.94-19.63L730.94-19.63Q729.88-19.19 729.44-18.81L729.44-18.81L729.44-18.81Q729-18.44 728.69-17.69L728.69-17.69L728.69-17.69Q728.38-16.94 727.53-15.81L727.53-15.81L727.53-15.81Q726.69-14.69 724.97-14.03L724.97-14.03L724.97-14.03Q723.25-13.38 722-12.94L722-12.94L722-12.94Q720.75-12.50 720.44-11.88L720.44-11.88L720.44-11.88Q720-11.06 720.22-8.03L720.22-8.03L720.22-8.03Q720.44-5 720.38-4.19L720.38-4.19L720.38-4.19Q720.31-3.38 720.19-2.84L720.19-2.84L720.19-2.84Q720.06-2.31 719.56-2L719.56-2L719.56-2Q719.06-1.69 718.69-1.69L718.69-1.69L718.69-1.69Q718.31-1.69 717.91-1.31L717.91-1.31L717.91-1.31Q717.50-0.94 717.19-0.56L717.19-0.56L717.19-0.56Q716.88-0.19 716.50 0.13L716.50 0.13L716.50 0.13Q715.63 0.94 714.44 0.94ZM718.69-34.06L718.69-34.06L718.69-34.06Q718.31-33.69 717.94-31.88L717.94-31.88L717.94-31.88Q717.56-30.06 717.56-29L717.56-29L717.56-29Q717.56-27.94 718-27.09L718-27.09L718-27.09Q718.44-26.25 718.41-25.72L718.41-25.72L718.41-25.72Q718.38-25.19 718.28-24.59L718.28-24.59L718.28-24.59Q718.19-24 718.19-23.38L718.19-23.38L718.19-23.38Q718.06-21.88 718.44-21.50L718.44-21.50L718.44-21.50Q718.81-21.13 719.28-21.22L719.28-21.22L719.28-21.22Q719.75-21.31 720.25-21.56L720.25-21.56L720.25-21.56Q720.75-21.81 721.16-22.09L721.16-22.09L721.16-22.09Q721.56-22.38 721.97-22.50L721.97-22.50L721.97-22.50Q722.38-22.63 722.56-23.06L722.56-23.06L722.56-23.06Q722.75-23.50 723.13-23.81L723.13-23.81L723.13-23.81Q723.56-24.13 723.72-24.66L723.72-24.66L723.72-24.66Q723.88-25.19 724.03-25.78L724.03-25.78L724.03-25.78Q724.19-26.38 724-26.91L724-26.91L724-26.91Q723.81-27.44 723.31-28.50L723.31-28.50L723.31-28.50Q722.94-29.56 723.06-30.19L723.06-30.19L723.06-30.19Q723.56-32.81 722.44-33.81L722.44-33.81L722.44-33.81Q721-34.69 720.03-34.56L720.03-34.56L720.03-34.56Q719.06-34.44 718.69-34.06Z" fill="#1d1d1d"></path></g></g><style>text {
  font-size: 64px;
  font-family: Arial Black;
  dominant-baseline: central;
  text-anchor: middle;
}</style></svg>